<svg width="24" height="24" viewBox="0 0 24 24" fill="none" xmlns="http://www.w3.org/2000/svg">
<path fill-rule="evenodd" clip-rule="evenodd" d="M18.8525 18.098V15.443H17.7565V18.098H18.8525ZM13.0515 16.996V15.483H11.9895V16.639C11.9895 16.975 11.9755 17.069 11.9555 17.157C11.8815 17.399 11.6255 17.507 11.3645 17.507C11.0015 17.507 10.8335 17.365 10.7655 17.143C10.7473 17.0658 10.7363 16.9871 10.7325 16.908C10.7255 16.821 10.7325 16.727 10.7325 16.626V15.483H9.65646V17.003C9.65646 17.346 9.77146 17.601 9.95946 17.776C10.2815 18.092 10.8265 18.186 11.3305 18.186C11.9425 18.186 12.4125 18.098 12.7485 17.769C12.9235 17.601 13.0515 17.379 13.0515 16.996ZM7.83546 16.807C7.7819 16.7982 7.72772 16.7939 7.67346 16.794H6.46346C6.40953 16.794 6.35568 16.7983 6.30246 16.807C6.32246 16.787 6.36246 16.747 6.40246 16.693L6.94746 15.793C7.02146 15.672 7.05546 15.591 7.06846 15.557C7.08246 15.591 7.11546 15.671 7.18946 15.799L7.74746 16.707C7.77446 16.747 7.81446 16.787 7.83546 16.807ZM9.86546 18.098L7.44546 14.468H6.08746L6.44346 14.892C6.45146 14.8986 6.46279 14.9053 6.47746 14.912C6.46279 14.9186 6.45146 14.9253 6.44346 14.932L4.33346 18.098H5.55646L5.88646 17.554C5.89701 17.533 5.90378 17.5103 5.90646 17.487C5.91946 17.487 5.95346 17.5 5.98646 17.5H8.17146C8.20546 17.4986 8.23012 17.494 8.24546 17.486C8.2446 17.5048 8.24911 17.5236 8.25846 17.54L8.60146 18.098H9.86546ZM17.4605 16.734C17.4605 16.438 17.3405 16.094 16.9635 15.618L16.0555 14.468H14.7925L15.5115 15.275C15.6325 15.409 15.7875 15.53 15.7875 15.53C15.6114 15.4365 15.4148 15.3884 15.2155 15.39C14.7995 15.39 14.3755 15.476 13.9995 15.685C13.5955 15.907 13.3265 16.276 13.3265 16.767C13.3265 17.144 13.4945 17.433 13.7095 17.654C14.1945 18.138 15.0745 18.186 15.3975 18.186C15.8745 18.186 16.6205 18.078 17.0445 17.695C17.1786 17.574 17.2852 17.4255 17.357 17.2597C17.4288 17.0939 17.4641 16.9146 17.4605 16.734ZM16.4125 16.767C16.4125 17.043 16.2305 17.251 16.0025 17.365C15.8145 17.466 15.5925 17.493 15.3975 17.493C15.2025 17.493 14.9735 17.453 14.7855 17.359C14.5565 17.244 14.3825 17.023 14.3825 16.781C14.3825 16.491 14.6035 16.263 14.8665 16.149C15.0275 16.075 15.2225 16.048 15.3765 16.048C15.5255 16.048 15.7405 16.068 15.9085 16.135C16.2105 16.263 16.4125 16.505 16.4125 16.767ZM18.5045 5.81397C17.7173 5.81288 16.9531 6.07868 16.3365 6.56797C15.7199 6.07868 14.9556 5.81288 14.1685 5.81397C13.3813 5.81288 12.6171 6.07868 12.0005 6.56797C11.3839 6.07868 10.6196 5.81288 9.83246 5.81397C9.04531 5.81288 8.28105 6.07868 7.66446 6.56797C7.14917 6.1608 6.52961 5.907 5.87675 5.83566C5.2239 5.76431 4.56415 5.87831 3.97308 6.16458C3.38202 6.45085 2.88354 6.89782 2.53475 7.45429C2.18597 8.01076 2.00098 8.65423 2.00098 9.31097C2.00098 9.96771 2.18597 10.6112 2.53475 11.1676C2.88354 11.7241 3.38202 12.1711 3.97308 12.4574C4.56415 12.7436 5.2239 12.8576 5.87675 12.7863C6.52961 12.7149 7.14917 12.4611 7.66446 12.054C8.28118 12.5429 9.04543 12.8083 9.83246 12.807C10.6195 12.8083 11.3837 12.5429 12.0005 12.054C12.6172 12.5429 13.3814 12.8083 14.1685 12.807C14.9555 12.8083 15.7197 12.5429 16.3365 12.054C16.7741 12.3994 17.2879 12.6352 17.8352 12.7417C18.3825 12.8481 18.9473 12.8221 19.4825 12.6659C20.0177 12.5096 20.5077 12.2276 20.9117 11.8434C21.3158 11.4592 21.6221 10.984 21.805 10.4573C21.988 9.93068 22.0424 9.3679 21.9636 8.81596C21.8848 8.26403 21.6752 7.73894 21.3521 7.28451C21.0291 6.83008 20.6021 6.4595 20.1067 6.20369C19.6114 5.94788 19.062 5.81425 18.5045 5.81397ZM7.09246 11.483C6.69095 11.7785 6.21532 11.9568 5.71849 11.9981C5.22166 12.0394 4.72312 11.942 4.27835 11.7167C3.83359 11.4915 3.46005 11.1473 3.1993 10.7224C2.93855 10.2974 2.80083 9.80851 2.80146 9.30997C2.80101 8.81151 2.93887 8.3227 3.19969 7.89793C3.46051 7.47316 3.83407 7.12907 4.2788 6.90396C4.72353 6.67885 5.222 6.58154 5.71874 6.62285C6.21548 6.66416 6.69102 6.84248 7.09246 7.13797C6.60318 7.75621 6.33698 8.52154 6.33698 9.30997C6.33698 10.0984 6.60318 10.8647 7.09246 11.483ZM7.66446 10.912C7.32097 10.4486 7.13615 9.88677 7.13746 9.30997C7.13615 8.73317 7.32097 8.17134 7.66446 7.70797C8.00846 8.17097 8.19446 8.73297 8.19246 9.30997C8.19326 9.88654 8.00809 10.449 7.66446 10.912ZM11.4285 11.481C10.9649 11.8206 10.4051 12.0035 9.83046 12.003C9.25696 12.004 8.69825 11.821 8.23646 11.481C8.72573 10.8627 8.99193 10.0974 8.99193 9.30897C8.99193 8.52054 8.72573 7.75521 8.23646 7.13697C8.69813 6.79654 9.25684 6.61322 9.83046 6.61397C10.4285 6.61397 10.9805 6.80797 11.4285 7.13697C10.9392 7.75521 10.673 8.52054 10.673 9.30897C10.673 10.0974 10.9392 10.8627 11.4285 11.481ZM12.0005 10.911C11.657 10.4476 11.4722 9.88577 11.4735 9.30897C11.4726 8.73285 11.6574 8.17179 12.0005 7.70897C12.3446 8.17201 12.5295 8.73406 12.5275 9.31097C12.5285 9.88742 12.3437 10.4479 12.0005 10.911ZM15.7645 11.482C15.3175 11.812 14.7645 12.004 14.1665 12.004C13.593 12.005 13.0343 11.822 12.5725 11.482C13.0617 10.8637 13.3279 10.0984 13.3279 9.30997C13.3279 8.52154 13.0617 7.75621 12.5725 7.13797C13.0195 6.80897 13.5685 6.61497 14.1665 6.61497C14.7645 6.61497 15.3165 6.80897 15.7645 7.13797C15.2752 7.75621 15.009 8.52154 15.009 9.30997C15.009 10.0984 15.2752 10.8637 15.7645 11.482ZM16.3365 10.912C15.993 10.4486 15.8082 9.88677 15.8095 9.30997C15.8074 8.73306 15.9923 8.17101 16.3365 7.70797C16.6806 8.17101 16.8655 8.73306 16.8635 9.30997C16.8645 9.88642 16.6797 10.4489 16.3365 10.912ZM18.5045 12.004C17.9105 12.004 17.3545 11.806 16.9085 11.481C17.3977 10.8627 17.6639 10.0974 17.6639 9.30897C17.6639 8.52054 17.3977 7.75521 16.9085 7.13697C17.3099 6.84148 17.7854 6.66316 18.2822 6.62185C18.7789 6.58054 19.2774 6.67785 19.7221 6.90296C20.1668 7.12807 20.5404 7.47216 20.8012 7.89693C21.062 8.3217 21.1999 8.81051 21.1995 9.30897C21.1996 9.66292 21.13 10.0134 20.9946 10.3405C20.8592 10.6675 20.6607 10.9646 20.4104 11.2149C20.1601 11.4652 19.863 11.6637 19.5359 11.7991C19.2089 11.9345 18.8584 12.0041 18.5045 12.004Z" fill="#494949"/>
</svg>
