<svg width="24" height="24" viewBox="0 0 24 24" fill="none" xmlns="http://www.w3.org/2000/svg">
<path fill-rule="evenodd" clip-rule="evenodd" d="M22 12C22 17.523 17.523 22 12 22C6.477 22 2 17.523 2 12C2 6.477 6.477 2 12 2C17.523 2 22 6.477 22 12ZM21.704 12C21.704 6.64 17.359 2.296 12 2.296C6.641 2.296 2.296 6.641 2.296 12C2.296 17.359 6.641 21.704 12 21.704C17.359 21.704 21.704 17.359 21.704 12Z" fill="#494949"/>
<path d="M6.47512 11.9822C6.47499 11.2554 6.61804 10.5357 6.8961 9.86425C7.17416 9.19278 7.58179 8.58266 8.0957 8.06875C8.6096 7.55485 9.21972 7.14722 9.89119 6.86916C10.5627 6.5911 11.2823 6.44805 12.0091 6.44818V17.5152C13.4765 17.5149 14.8837 16.9319 15.9212 15.8943C16.9588 14.8567 17.5419 13.4495 17.5421 11.9822H6.47512ZM7.21612 7.16418L6.47212 8.05218L6.00412 7.66018L6.75512 6.76618C6.83912 6.66518 7.02812 6.63618 7.15512 6.74218C7.30012 6.86218 7.31512 7.04618 7.21612 7.16418ZM6.39312 6.55218L5.68712 7.39318L5.24512 7.02318L5.95912 6.17118C6.04212 6.07218 6.22912 6.07718 6.34912 6.17818C6.48112 6.28918 6.48112 6.44618 6.39312 6.55218Z" fill="#494949"/>
<path d="M21.2665 11.9821C21.2792 13.206 21.0491 14.4201 20.5896 15.5545C20.1301 16.6888 19.4502 17.7208 18.5893 18.5907C17.7284 19.4605 16.7036 20.1511 15.5741 20.6224C14.4446 21.0937 13.2329 21.3364 12.009 21.3364C10.7851 21.3364 9.57337 21.0937 8.44388 20.6224C7.31439 20.1511 6.28955 19.4605 5.42865 18.5907C4.56775 17.7208 3.88787 16.6888 3.42834 15.5545C2.96882 14.4201 2.73876 13.206 2.75148 11.9821C2.73876 10.7583 2.96882 9.54415 3.42834 8.40982C3.88787 7.2755 4.56775 6.24354 5.42865 5.37364C6.28955 4.50375 7.31439 3.81318 8.44388 3.34189C9.57337 2.87059 10.7851 2.62793 12.009 2.62793C13.2329 2.62793 14.4446 2.87059 15.5741 3.34189C16.7036 3.81318 17.7284 4.50375 18.5893 5.37364C19.4502 6.24354 20.1301 7.2755 20.5896 8.40982C21.0491 9.54415 21.2792 10.7583 21.2665 11.9821ZM4.51048 7.23715L6.38048 8.80715L7.63348 7.31215C7.92048 6.97015 7.96548 6.63115 7.66348 6.33915C7.56148 6.23872 7.42787 6.17668 7.28533 6.16355C7.14279 6.15043 7.0001 6.18703 6.88148 6.26715C6.92434 6.15012 6.9254 6.02187 6.88448 5.90415C6.77048 5.69415 6.72448 5.65715 6.63748 5.58415L6.61748 5.56715C6.29048 5.29315 5.94648 5.52715 5.70048 5.82115L4.51048 7.23715ZM12.9615 3.96515V5.66715H13.4485V3.23015H12.7165L12.0525 4.96615L11.3885 3.23015H10.6565V5.66715H11.1445V3.96515L11.7865 5.66715H12.3195L12.9615 3.96515ZM17.9595 7.98115L18.8785 6.68015L18.4735 6.18015L17.0105 6.80815L17.9685 5.55615L17.5915 5.09115L16.0615 7.05715L16.5095 7.60515L17.9535 7.01015L17.9585 7.01615L17.0775 8.30615L17.5195 8.85615L19.7605 7.77015L19.3835 7.30415L17.9595 7.98115ZM12.0095 17.8961C12.7861 17.8961 13.5551 17.7432 14.2727 17.446C14.9902 17.1488 15.6421 16.7131 16.1913 16.164C16.7405 15.6148 17.1761 14.9629 17.4733 14.2453C17.7705 13.5278 17.9235 12.7588 17.9235 11.9821C17.9235 11.2055 17.7705 10.4365 17.4733 9.71896C17.1761 9.00144 16.7405 8.34948 16.1913 7.80032C15.6421 7.25115 14.9902 6.81553 14.2727 6.51832C13.5551 6.22112 12.7861 6.06815 12.0095 6.06815C10.441 6.06815 8.93674 6.69123 7.82765 7.80032C6.71856 8.90941 6.09548 10.4137 6.09548 11.9821C6.09548 13.5506 6.71856 15.0549 7.82765 16.164C8.93674 17.2731 10.441 17.8961 12.0095 17.8961Z" fill="#494949"/>
</svg>
