<svg width="24" height="24" viewBox="0 0 24 24" fill="none" xmlns="http://www.w3.org/2000/svg">
<path d="M23.9048 9.78389H15.9198V8.24589C15.92 8.22519 15.916 8.20467 15.9082 8.1855C15.9004 8.16634 15.8888 8.14891 15.8742 8.13423C15.8596 8.11954 15.8423 8.10789 15.8232 8.09994C15.804 8.09198 15.7835 8.08789 15.7628 8.08789H8.23785C8.21714 8.08789 8.19665 8.09198 8.17753 8.09994C8.15842 8.10789 8.14107 8.11954 8.12647 8.13423C8.11188 8.14891 8.10034 8.16634 8.09251 8.1855C8.08468 8.20467 8.08071 8.22519 8.08085 8.24589V9.78389H2.35785C2.27085 9.78389 2.16485 9.85389 2.12085 9.94189L0.0198452 14.0579C-0.0251548 14.1459 0.00884524 14.2149 0.0968452 14.2149H8.07985V15.7549C8.07985 15.8409 8.14985 15.9119 8.23685 15.9119H15.7618C15.8488 15.9119 15.9188 15.8419 15.9188 15.7549V14.2149H21.6418C21.7288 14.2149 21.8348 14.1449 21.8798 14.0579L23.9798 9.94189C24.0248 9.85489 23.9908 9.78389 23.9038 9.78389M21.4098 10.7799L20.1658 13.2169H14.9338V14.9249H9.06985V13.2169H2.59485L3.83985 10.7799H9.07185V9.07289H14.9358V10.7799H21.4098Z" fill="#494949"/>
</svg>
