<svg width="20" height="20" viewBox="0 0 20 20" fill="none" xmlns="http://www.w3.org/2000/svg">
<path d="M12.1329 11.0152C11.2643 11.8838 9.85603 11.8838 8.98736 11.0152C8.1188 10.1466 8.1188 8.73833 8.98736 7.8697L10.9534 5.90375C11.7824 5.07467 13.1031 5.03694 13.9769 5.79055M13.7057 3.15146C14.5743 2.28285 15.9825 2.28285 16.8512 3.15146C17.7198 4.02006 17.7198 5.42836 16.8512 6.29696L14.8852 8.26291C14.0562 9.092 12.7354 9.12975 11.8616 8.37608" stroke="#552D6C" stroke-width="1.5" stroke-linecap="round" stroke-linejoin="round"/>
<path d="M8.74992 2.5C6.01048 2.5 4.64074 2.5 3.7188 3.25658C3.54998 3.39512 3.39519 3.54991 3.25665 3.71873C2.50006 4.64066 2.50005 6.01039 2.50002 8.74983L2.5 10.8332C2.49997 13.976 2.49996 15.5473 3.47627 16.5237C4.45258 17.5 6.02394 17.5 9.16667 17.5H11.2499C13.9895 17.5 15.3593 17.5 16.2812 16.7433C16.45 16.6048 16.6047 16.4501 16.7433 16.2813C17.4999 15.3593 17.4999 13.9896 17.4999 11.25" stroke="#552D6C" stroke-width="1.5" stroke-linecap="round" stroke-linejoin="round"/>
</svg>
