<svg width="20" height="20" viewBox="0 0 20 20" fill="none" xmlns="http://www.w3.org/2000/svg">
<path fill-rule="evenodd" clip-rule="evenodd" d="M5.14891 8.61092C4.33411 8.61092 4.16406 8.77084 4.16406 9.53684V10.9258C4.16406 11.6918 4.33411 11.8517 5.14891 11.8517H7.1186V17.4073C7.1186 18.1733 7.28865 18.3332 8.10345 18.3332H10.0731C10.888 18.3332 11.058 18.1733 11.058 17.4073V11.8517H13.2696C13.8876 11.8517 14.0469 11.7388 14.2166 11.1802L14.6387 9.79125C14.9295 8.83434 14.7503 8.61092 13.6917 8.61092H11.058V6.29614C11.058 5.78476 11.4989 5.3702 12.0428 5.3702H14.8459C15.6606 5.3702 15.8307 5.21033 15.8307 4.44428V2.59243C15.8307 1.82638 15.6606 1.6665 14.8459 1.6665H12.0428C9.32323 1.6665 7.1186 3.73926 7.1186 6.29614V8.61092H5.14891Z" stroke="#552D6C" stroke-width="1.5" stroke-linejoin="round"/>
</svg>
