<svg width="24" height="24" viewBox="0 0 24 24" fill="none" xmlns="http://www.w3.org/2000/svg">
<path d="M11.5433 0C11.5433 0 11.5333 0.141 11.4903 0.227C11.4583 0.302 11.3723 0.355 11.3833 0.409C11.3943 0.463 11.4473 0.528 11.5333 0.571C11.6193 0.614 11.6503 0.645 11.7363 0.667C11.8113 0.688 11.9203 0.743 11.9413 0.678C11.9743 0.614 11.9313 0.527 11.8773 0.452C11.7913 0.312 11.7473 0.28 11.6293 0.087C11.6073 0.044 11.5863 0 11.5433 0ZM12.2213 0C12.1993 0.011 12.1673 0.174 12.1133 0.313C12.0493 0.474 12.0913 0.549 12.1233 0.613C12.1663 0.678 12.2213 0.721 12.1133 0.786C12.0063 0.85 11.8653 0.829 11.8653 0.829C11.8653 0.829 11.7473 0.806 11.6503 0.753L11.3503 0.623C11.3503 0.623 11.1563 0.57 11.0273 0.581C10.8983 0.592 10.8873 0.603 10.7913 0.614C10.7373 0.614 10.7163 0.613 10.6623 0.624C10.6193 0.634 10.5663 0.604 10.5663 0.657C10.5663 0.71 10.6733 0.711 10.7483 0.743C10.8233 0.775 10.9953 0.774 10.9633 0.817C10.9203 0.86 10.7593 0.871 10.7483 0.86C10.7383 0.86 10.6313 0.839 10.5453 0.839C10.4053 0.849 10.3953 0.849 10.1923 0.946C10.1593 0.956 10.1703 1.032 10.2343 1.01C10.3322 0.981802 10.4335 0.967331 10.5353 0.967C10.6653 0.967 10.7383 1.011 10.8673 1.044C10.9753 1.076 10.9853 1.096 11.1473 1.118C11.1793 1.118 11.2423 1.096 11.2423 1.139C11.2423 1.161 11.1993 1.194 11.1993 1.194C11.1993 1.194 11.1033 1.214 11.1133 1.247C11.1353 1.29 11.2213 1.247 11.2633 1.247C11.3073 1.247 11.3733 1.259 11.3613 1.301L11.3403 1.333C11.241 1.35784 11.1437 1.39026 11.0493 1.43C10.7803 1.538 10.6743 1.667 10.4163 1.796C10.1693 1.914 9.77229 2.063 9.77229 2.063C9.77229 2.063 9.65429 2.128 9.48229 2.17C9.31129 2.214 9.30029 2.204 9.18229 2.225C9.08672 2.2317 8.99413 2.26119 8.91229 2.311C8.85526 2.34004 8.80434 2.37976 8.76229 2.428L8.61229 2.655L8.52529 2.782C8.50429 2.825 8.48329 2.846 8.47329 2.889C8.45129 2.943 8.44029 2.965 8.43029 3.019C8.39829 3.147 8.43029 3.223 8.45129 3.352C8.46229 3.384 8.46229 3.406 8.47329 3.438C8.48429 3.47 8.52529 3.503 8.52529 3.503L8.56829 3.513C8.56829 3.513 8.72029 3.503 8.81629 3.481C8.91329 3.46 9.05329 3.426 9.05329 3.426L9.23429 3.374L9.35429 3.331C9.35429 3.331 9.42929 3.331 9.44029 3.374C9.45029 3.406 9.41829 3.46 9.41829 3.46C9.41829 3.46 9.35329 3.49 9.29929 3.512C9.24529 3.534 9.11629 3.566 9.10629 3.577L8.96629 3.62L8.84829 3.631C8.84829 3.631 8.82629 3.642 8.80529 3.674C8.78329 3.707 8.78329 3.706 8.78329 3.727C8.80529 3.749 8.81629 3.77 8.83829 3.792C8.88129 3.824 8.90229 3.845 8.95529 3.856C9.03029 3.888 9.07329 3.878 9.14829 3.878C9.24214 3.87775 9.33461 3.85548 9.41829 3.813C9.50429 3.759 9.53629 3.76 9.65429 3.717C9.69264 3.70529 9.73226 3.69824 9.77229 3.696C9.97629 3.674 10.0923 3.706 10.2973 3.739C10.5013 3.771 10.5993 3.836 10.8033 3.868C11.0183 3.9 11.1463 3.964 11.3713 3.911C11.4793 3.889 11.5443 3.835 11.5983 3.942C11.6513 4.039 11.6413 4.092 11.6413 4.092C11.6413 4.092 11.6403 4.158 11.5653 4.362C11.4893 4.566 11.2543 5.071 11.2543 5.071L11.0923 5.393C11.0923 5.393 10.9623 5.65 10.6623 5.983L10.3423 6.336C10.3423 6.336 10.1813 6.455 10.0203 6.659C9.85929 6.863 9.85729 6.938 9.70729 7.089C9.61029 7.185 9.55729 7.239 9.43929 7.315C9.32129 7.39 9.18129 7.368 8.80529 7.625C8.48329 7.851 8.31129 8.035 8.28929 8.024C8.26829 8.014 8.16029 7.926 8.11729 7.904C8.08529 7.884 7.46329 7.465 7.46329 7.465L7.20529 7.293L7.08629 7.217L7.06529 7.174L7.00229 7.088C7.00229 7.088 6.90529 6.97 6.78729 6.874C6.66567 6.75488 6.51275 6.6727 6.34629 6.637C6.16329 6.584 6.04629 6.551 5.86429 6.616C5.76136 6.64993 5.66854 6.70905 5.59429 6.788C5.48729 6.895 5.46529 6.981 5.37929 7.11C5.29329 7.239 5.20729 7.358 5.16429 7.422C5.12129 7.487 5.03529 7.659 5.03529 7.659C5.03529 7.659 4.82129 8.002 4.70329 8.227C4.56329 8.474 4.51029 8.626 4.38129 8.862C4.17729 9.238 3.88629 9.624 3.81129 9.795L3.72729 9.989C3.72729 9.989 3.70429 10.084 3.69429 10.149C3.68329 10.213 3.68329 10.321 3.67229 10.364C3.66355 10.4071 3.64546 10.4477 3.61929 10.483C3.60929 10.493 3.49029 10.74 3.44729 10.901C3.40429 11.062 3.30729 11.567 3.42629 11.631C3.54429 11.696 4.41329 11.321 4.53129 10.955C4.60729 10.719 4.29529 10.6 4.38129 10.385C4.41329 10.31 4.43529 10.3 4.48829 10.225C4.57429 10.085 4.54229 9.796 4.70329 9.528C4.82129 9.335 5.05729 9.086 5.37929 8.721C5.58329 8.496 5.77729 8.131 5.77729 8.131C5.77729 8.131 5.82029 8.002 5.90729 8.024C6.00329 8.045 6.08829 8.034 6.08829 8.034L6.13129 8.067L6.21729 8.153L6.34629 8.346C6.34629 8.346 6.56229 8.656 6.63629 8.743C6.71229 8.829 6.78729 8.893 6.89529 8.979C7.01329 9.086 7.05529 9.14 7.20529 9.259C7.42029 9.43 7.34429 9.495 7.06529 9.344C6.94873 9.28627 6.82682 9.24005 6.70129 9.206C6.57329 9.173 6.08929 9.044 5.84229 9.012C5.60629 8.98 5.56229 8.991 5.56229 8.991C5.56229 8.991 5.44429 8.979 5.30529 9.065C5.16529 9.151 5.09029 9.215 5.09029 9.215C5.09029 9.215 4.92929 9.398 4.91829 9.43C4.90729 9.462 4.83229 9.59 4.83229 9.59C4.83229 9.59 4.78829 9.656 4.77829 9.73C4.75629 9.806 4.76829 9.881 4.76829 9.881L4.77829 10.041L4.78929 10.191C4.78929 10.191 4.82229 10.568 4.89729 10.944C4.91829 11.051 4.94029 11.223 4.94029 11.223L4.99229 11.61C4.99229 11.61 5.02529 12.019 5.05729 12.158C5.08929 12.288 5.11129 12.298 5.13329 12.383C5.17629 12.544 5.10129 12.619 5.17629 12.813C5.25129 13.006 5.31629 12.983 5.39129 13.102C5.44529 13.188 5.46529 13.209 5.50829 13.317C5.55129 13.424 5.69129 13.78 5.85229 14.037C6.02429 14.306 6.25029 14.638 6.40129 14.606C6.55129 14.573 6.65829 14.338 6.65829 14.338C6.65829 14.338 6.83029 13.875 6.72329 13.424C6.61529 12.962 6.12129 13.179 6.05729 12.846C6.04729 12.771 6.05729 12.653 6.05729 12.653C6.05729 12.653 6.04529 12.512 6.02429 12.469C6.00329 12.426 5.83029 12.105 5.76629 11.836C5.71229 11.632 5.72329 10.976 5.68029 10.793C5.56229 10.321 5.55129 10.363 5.61529 10.278C5.69129 10.192 5.75629 10.213 5.75629 10.213L5.85229 10.225L5.92829 10.256L6.06729 10.342C6.11029 10.374 6.26029 10.492 6.26029 10.492L6.62529 10.729C6.62529 10.729 6.83029 10.848 6.91629 10.891C7.00229 10.934 7.07629 10.987 7.07629 10.987L7.17229 11.051L7.33429 11.171L7.36529 11.201L7.38729 11.244C7.38729 11.244 7.46329 11.417 7.78529 11.6C8.04329 11.75 8.26929 11.706 8.36529 11.825C8.38729 11.846 8.56829 12.095 8.65529 12.245C8.76229 12.416 8.89129 12.619 8.93429 12.684C8.97729 12.748 9.24629 13.08 9.24629 13.08L9.60029 13.467L10.0633 13.897L10.4813 14.252L10.7483 14.467C10.7483 14.467 10.9853 14.693 11.2543 14.875C11.5123 15.047 11.5223 15.068 11.6943 15.185C11.8223 15.272 11.9943 15.391 12.1663 15.52C12.3383 15.66 12.5323 15.916 12.4573 16.002C12.4033 16.034 12.3063 15.896 12.1233 15.735C12.0044 15.6272 11.8792 15.5267 11.7483 15.434C11.5553 15.284 11.4573 15.207 11.2423 15.078C11.1353 15.014 10.9423 14.897 10.9323 14.918C10.8573 15.144 10.8663 15.358 10.8773 15.637C10.8873 15.83 10.9203 16.023 10.9843 16.27C11.0383 16.506 11.0923 16.636 11.1783 16.861C11.2643 17.087 11.4263 17.441 11.4263 17.441L11.6723 17.936L11.8983 18.311L12.0163 18.504L12.0593 18.568C12.0593 18.568 12.1123 18.698 12.0593 18.783C12.0063 18.868 11.9403 19.052 11.8443 19.063C11.7473 19.084 11.5223 19.096 11.5223 19.096L10.2443 19.074L9.57829 19.02C9.57829 19.02 9.50429 18.977 9.11829 18.977C8.89229 18.977 8.70929 19.073 8.58029 19.084C8.47329 19.094 7.94629 19.052 7.59229 19.191C7.25929 19.331 7.10829 19.363 6.99029 19.578C6.90429 19.739 7.41029 19.998 7.82829 20.094C8.50529 20.244 8.31129 19.954 8.56829 19.772C8.60129 19.75 8.61229 19.73 8.64529 19.719C8.81629 19.665 8.91229 19.803 9.08529 19.803C9.27729 19.803 9.38529 19.739 9.57829 19.707C10.5553 19.578 12.0803 20.039 12.0803 20.039C12.0803 20.039 12.4573 20.157 12.6293 20.125C12.8333 20.082 12.7893 20.007 12.8533 19.889C12.9073 19.792 12.8863 19.772 12.8963 19.664C12.8963 19.6 12.8863 19.568 12.8753 19.504C12.8323 19.321 12.7153 19.063 12.7153 19.063C12.7153 19.063 12.6283 18.87 12.5953 18.773C12.5533 18.634 12.5103 18.547 12.4883 18.397C12.4243 17.999 12.4353 18.032 12.4353 17.807C12.4353 17.399 12.4783 17.173 12.5853 16.776C12.7473 16.196 13.0483 15.949 13.2733 15.391C13.3383 15.241 13.3373 15.026 13.4133 15.004C13.4983 14.994 13.4883 15.273 13.4453 15.434C13.3053 15.992 12.9623 16.228 12.8013 16.797C12.6833 17.237 12.6183 17.494 12.6513 17.945C12.6613 18.192 12.7583 18.58 12.7583 18.58C12.7583 18.58 12.8873 19.009 12.9513 19.17C13.0163 19.331 13.1443 19.6 13.1443 19.6L13.4343 20.115L13.5843 20.361C13.5843 20.361 13.6903 20.458 13.6373 20.619C13.5833 20.78 13.4773 20.879 13.3473 21.018C12.9833 21.448 12.1353 22.08 11.9203 22.23C11.6203 22.456 11.6293 22.521 11.6073 22.586C11.4893 22.93 11.1453 22.94 10.7703 23.348C10.6843 23.434 10.4593 23.669 10.5023 23.873C10.5233 23.948 11.4473 24.11 11.9843 23.885C12.4043 23.702 12.0383 23.497 12.1563 23.293C12.2423 23.143 12.4563 23.143 12.5533 23.013C12.7133 22.799 12.6063 22.81 12.7463 22.639C13.2083 22.08 13.5093 21.759 14.3363 21.254C14.4113 21.211 14.5513 21.147 14.5513 21.147C14.5513 21.147 14.6683 21.092 14.7113 21.027C14.7653 20.941 14.7543 20.867 14.7543 20.77C14.7543 20.705 14.7443 20.674 14.7443 20.61C14.7443 20.534 14.7543 20.491 14.7323 20.416C14.7113 20.298 14.6373 20.201 14.5943 20.136C14.5118 20.0329 14.4562 19.9109 14.4323 19.781C14.3742 19.5831 14.3859 19.3713 14.4653 19.181C14.5513 18.956 14.7443 18.774 14.7443 18.774L15.2263 18.451C15.2263 18.451 15.6463 18.15 15.7763 18.031C15.9153 17.913 16.1833 17.666 16.3763 17.387C16.6023 17.076 16.7203 16.882 16.8163 16.507C16.8483 16.367 16.8813 16.153 16.8813 16.153C16.8813 16.153 16.8813 16.003 16.9673 15.993C17.0533 15.983 17.0743 16.013 17.0743 16.013C17.0743 16.013 17.1483 16.055 17.1703 16.27C17.1803 16.485 17.1173 16.733 17.1173 16.733C17.1173 16.733 17.0523 16.979 17.0313 17.129C17.0213 17.226 17.0193 17.279 17.0193 17.387C17.0193 17.57 17.0953 17.721 17.0953 17.721C17.0953 17.721 17.1383 17.753 17.1383 17.678C17.1441 17.5617 17.1625 17.4463 17.1933 17.334C17.2253 17.227 17.2463 17.247 17.3103 17.064C17.3963 16.828 17.3203 16.851 17.3633 16.711C17.3853 16.647 17.4393 16.582 17.5033 16.582C17.5673 16.582 17.5783 16.668 17.5783 16.668C17.5783 16.668 17.6433 16.948 17.5903 17.205C17.5363 17.463 17.3423 17.817 17.3423 17.817L17.1933 18.074C17.1933 18.074 17.0863 18.257 17.0433 18.375C17.0003 18.504 16.9883 18.558 17.0103 18.675C17.0423 18.805 17.1403 18.978 17.1933 18.945C17.2363 18.913 17.1293 18.805 17.2583 18.547C17.3873 18.289 17.5563 18.129 17.5563 18.129C17.5563 18.129 17.7933 17.849 17.9003 17.635C17.9973 17.442 18.0943 17.129 18.0943 17.129C18.0943 17.129 18.1703 16.849 18.1483 16.613C18.1383 16.388 18.0943 16.27 18.0943 16.27L17.9983 16.098L17.9433 15.971L17.9653 15.895C17.9863 15.884 18.0623 15.938 18.1273 16.024C18.2057 16.1249 18.2604 16.2421 18.2873 16.367C18.3169 16.4646 18.3314 16.5661 18.3303 16.668C18.3303 16.754 18.2993 17.108 18.4273 17.334C18.4813 17.442 18.6103 17.688 18.6213 17.58C18.6423 17.333 18.5343 17.216 18.5453 16.99C18.5553 16.733 18.6213 16.797 18.6423 16.668C18.6643 16.528 18.6953 16.495 18.6743 16.313C18.6513 16.1786 18.6193 16.046 18.5783 15.916L18.5023 15.744L18.4703 15.68C18.4703 15.68 18.4913 15.649 18.5233 15.649L18.7813 15.563C18.7813 15.563 19.1153 15.413 19.2443 15.305C19.3843 15.208 19.5443 15.035 19.5443 15.035C19.5443 15.035 19.7593 14.768 19.8673 14.575C20.1253 14.091 20.1243 13.479 20.1133 13.199C20.1033 12.931 20.0273 12.576 20.0273 12.576C20.0273 12.576 19.9413 12.146 19.9633 11.867C19.9853 11.588 20.0063 11.459 20.0063 11.459C20.0063 11.459 19.9963 11.18 20.2323 10.879C20.4683 10.578 20.5743 10.386 20.6173 10.16C20.6603 9.967 20.5953 9.656 20.5093 9.774C20.4133 9.903 20.3723 10.161 20.2323 10.375C20.0393 10.676 19.7583 11.041 19.6193 11.041C19.5443 11.041 19.5233 10.869 19.5233 10.869C19.5233 10.869 19.4273 10.579 19.5883 10.213C19.7063 9.955 19.7693 9.881 19.9203 9.688C20.0603 9.505 20.1453 9.408 20.2423 9.215C20.3283 9.043 20.3483 9.011 20.4023 8.743C20.4123 8.678 20.3923 8.539 20.3283 8.549C20.2423 8.549 20.0063 9.066 19.7593 9.356C19.5233 9.624 19.0823 9.967 19.0823 9.967C19.0823 9.967 19.0393 9.998 19.0393 9.912C19.0293 9.837 19.0173 9.612 19.0603 9.409C19.1138 9.15364 19.2124 8.90985 19.3513 8.689C19.5553 8.335 19.8123 8.089 19.9413 7.959C19.9953 7.906 20.1563 7.808 20.0713 7.754C19.9953 7.711 19.7693 7.904 19.5973 8.034C19.3833 8.194 19.3083 8.239 19.0943 8.497C18.8793 8.754 18.8243 8.862 18.8243 8.862C18.8243 8.862 18.6203 9.194 18.5663 9.516C18.5123 9.838 18.5133 10.02 18.5133 10.02C18.5133 10.02 18.5133 10.311 18.5453 10.483C18.5663 10.665 18.6423 10.943 18.6423 10.943C18.6423 10.943 18.7503 11.256 18.7923 11.45C18.8363 11.643 18.9103 12.211 18.9103 12.211C18.9103 12.211 18.9643 12.62 18.9313 13.006C18.8993 13.393 18.8673 13.618 18.8243 13.736C18.7813 13.855 18.6643 14.166 18.4703 14.381C18.2883 14.585 18.2443 14.617 18.2443 14.617C18.2443 14.617 18.0513 14.777 17.8903 14.863C17.7274 14.9502 17.5587 15.0261 17.3853 15.09C17.2968 15.1064 17.2072 15.1167 17.1173 15.121H16.9783L16.9353 15.091L16.9123 15.004C16.9123 15.004 16.8063 14.585 16.6783 14.317C16.5703 14.091 16.3443 13.78 16.3443 13.78C16.3443 13.78 15.9573 13.253 15.6563 12.963C15.3123 12.62 14.9263 12.363 14.6893 12.18C14.6033 12.116 14.4103 11.996 14.4103 11.996C14.4103 11.996 13.6273 11.213 13.3483 10.59C13.1543 10.16 13.0263 9.85 13.0803 9.377C13.0903 9.27 13.1333 9.065 13.1543 9.065L13.2943 9.108C13.3063 9.118 13.4343 9.237 13.5533 9.28C13.6173 9.301 13.7343 9.323 13.7343 9.323C13.7343 9.323 13.8313 9.333 13.8843 9.344C13.9383 9.366 14.0353 9.398 14.0993 9.43C14.1643 9.462 14.2593 9.528 14.2593 9.528L14.4433 9.666L14.6373 9.816C14.6373 9.816 14.7433 9.892 14.7753 9.903C14.8073 9.914 14.8293 9.924 14.8403 9.924H14.8833C14.8833 9.924 14.9273 9.912 14.9373 9.869C14.9483 9.816 14.8843 9.859 14.7873 9.752C14.7274 9.70055 14.6767 9.63936 14.6373 9.571C14.6373 9.571 14.6153 9.484 14.5293 9.387C14.4433 9.29 14.3363 9.205 14.3363 9.205C14.3363 9.205 14.2603 9.152 14.1523 9.119C14.0453 9.087 14.0123 9.086 14.0023 9.043C13.9923 9 14.1313 9.022 14.1313 9.022C14.1313 9.022 14.2933 9.043 14.4213 9.108C14.5513 9.172 14.6253 9.248 14.6253 9.248L14.7113 9.323L14.7663 9.377L14.8183 9.409C14.8183 9.409 14.8723 9.462 14.8833 9.387C14.8933 9.323 14.8723 9.269 14.8613 9.258L14.8083 9.205L14.5943 9.022C14.5429 8.9656 14.4852 8.91527 14.4223 8.872C14.3354 8.81074 14.2414 8.76037 14.1423 8.722C14.0353 8.678 13.9713 8.689 13.8633 8.635C13.7883 8.603 13.7233 8.582 13.6803 8.518C13.6693 8.508 13.6163 8.463 13.7133 8.485C13.8093 8.506 13.8733 8.539 13.9803 8.561C14.1523 8.604 14.2603 8.603 14.4223 8.657C14.4863 8.678 14.5723 8.721 14.5723 8.721L14.7753 8.807C14.7753 8.807 15.0553 8.958 15.2483 8.969C15.3913 8.98 15.535 8.95811 15.6683 8.905C15.7464 8.87326 15.8189 8.82939 15.8833 8.775C15.9028 8.75552 15.9202 8.73407 15.9353 8.711L15.9573 8.657V8.614C15.9033 8.549 15.7973 8.722 15.6253 8.754C15.4423 8.787 15.4523 8.807 15.3343 8.786C15.2195 8.7737 15.113 8.72045 15.0343 8.636C14.8613 8.474 14.7983 8.324 14.5723 8.227C14.4763 8.184 14.3023 8.141 14.3023 8.141C14.3023 8.141 14.0663 8.066 13.9373 7.991C13.8413 7.937 13.6393 7.905 13.7033 7.819C13.7353 7.776 13.9933 7.926 14.1853 7.948C14.3253 7.969 14.4223 7.959 14.5293 7.959C14.6363 7.959 14.7873 7.926 14.8093 7.926C14.8303 7.916 14.9153 7.926 14.9903 7.948C15.0653 7.97 15.1083 8.001 15.1833 8.034C15.2583 8.067 15.3463 8.12 15.3673 8.12L15.4103 8.131L15.4323 8.11L15.4423 8.088L15.4323 8.067L15.3983 8.045L15.3343 8.002C15.3343 8.002 15.2383 7.948 15.1523 7.862C15.0663 7.776 14.9903 7.68 14.8623 7.637C14.7323 7.594 14.5823 7.573 14.5823 7.573L14.4323 7.561L14.3673 7.551C14.3673 7.551 14.2603 7.518 14.3463 7.497C14.3954 7.48251 14.4455 7.47181 14.4963 7.465C14.5785 7.44744 14.6638 7.45088 14.7443 7.475C14.8303 7.507 14.9703 7.582 14.9803 7.582C14.9913 7.593 15.1203 7.691 15.2603 7.723C15.4003 7.755 15.5823 7.766 15.5823 7.766L15.6683 7.745L15.7113 7.733L15.7423 7.711L15.7323 7.659C15.7323 7.659 15.7323 7.615 15.6683 7.604C15.556 7.59084 15.4486 7.5507 15.3553 7.487C15.2373 7.401 15.1523 7.315 15.1523 7.315C15.1523 7.315 15.0663 7.239 14.8943 7.195C14.7343 7.153 14.6803 7.153 14.6803 7.153L14.6253 7.131L14.5083 7.079C14.5083 7.079 14.4533 7.046 14.4103 6.993C14.3673 6.939 14.3043 6.841 14.4863 6.895C14.6693 6.949 14.7113 6.981 14.7113 6.981C14.7113 6.981 14.8083 7.078 14.8943 7.088C14.9483 7.099 14.9913 7.11 15.0243 7.067C15.0773 7.013 14.9263 6.949 14.8183 6.873C14.7495 6.8199 14.6911 6.75445 14.6463 6.68C14.6463 6.68 14.5833 6.627 14.6803 6.649C14.7763 6.67 14.9473 6.778 14.9473 6.778C14.9473 6.778 15.0333 6.82 15.0773 6.831C15.1083 6.841 15.1953 6.895 15.2383 6.916C15.2703 6.927 15.3683 6.949 15.4313 6.981C15.5173 7.035 15.5613 7.121 15.6033 7.153C15.6463 7.185 15.6793 7.24 15.7333 7.25C15.7863 7.261 15.7963 7.282 15.8283 7.26L15.8713 7.229C15.8713 7.229 15.8813 7.206 15.8283 7.174C15.7753 7.142 15.7113 7.057 15.7113 7.057L15.6893 7.014L15.6783 6.971L15.6253 6.885L15.5273 6.745C15.5273 6.745 15.3773 6.541 15.2383 6.465C15.1093 6.39 15.0123 6.348 15.0123 6.348C15.0123 6.348 14.9483 6.317 14.9163 6.295C14.8623 6.252 14.8403 6.218 14.7963 6.165C14.7433 6.1 14.7233 6.059 14.6583 5.995C14.5403 5.877 14.1753 5.811 14.3143 5.725C14.3903 5.682 14.4863 5.705 14.5293 5.715C14.5723 5.725 14.6693 5.767 14.7663 5.799C14.8303 5.821 14.8733 5.823 14.9373 5.844C15.0023 5.866 15.0773 5.875 15.1093 5.897C15.1413 5.919 15.1743 5.962 15.1953 5.973C15.2063 5.983 15.2913 6.123 15.4413 6.198C15.5913 6.273 15.6683 6.326 15.8183 6.336C15.9363 6.347 16.1283 6.306 16.1283 6.306C16.1283 6.306 16.1833 6.283 16.1403 6.229C16.0873 6.175 16.0863 6.165 16.0433 6.155C15.8713 6.09 15.7333 6.112 15.6033 5.983C15.5503 5.929 15.5273 5.918 15.4843 5.833C15.4413 5.747 15.4643 5.726 15.4323 5.673C15.4103 5.619 15.3553 5.543 15.3553 5.543C15.3553 5.543 15.1953 5.349 15.0233 5.253C14.9051 5.19259 14.7932 5.12057 14.6893 5.038C14.6573 5.016 14.5943 4.93 14.5943 4.93L14.5393 4.844L14.5083 4.78C14.4863 4.662 14.7003 4.813 14.8183 4.856C15.0123 4.92 15.1093 5.006 15.3033 5.071C15.4103 5.103 15.4753 5.102 15.5823 5.145C15.7643 5.22 15.8183 5.403 16.0123 5.425C16.1193 5.435 16.3343 5.478 16.2913 5.381C16.2483 5.274 16.0333 5.274 15.9263 5.145C15.8723 5.091 15.8723 5.039 15.8183 4.985C15.7323 4.877 15.5283 4.78 15.5283 4.78C15.5283 4.78 15.4643 4.727 15.3883 4.577C15.3243 4.427 15.1633 4.317 14.8733 4.178C14.6803 4.082 14.2933 4.06 14.4433 3.963C14.5293 3.899 14.6043 3.91 14.7233 3.942C14.8413 3.985 14.8833 4.04 14.9803 4.082C15.0773 4.126 15.1203 4.136 15.1403 4.147C15.1623 4.157 15.2373 4.19 15.2703 4.19C15.2903 4.2 15.4533 4.222 15.4963 4.233L15.7113 4.286L15.8833 4.35C15.8833 4.35 15.9683 4.383 16.0213 4.383C16.0743 4.383 16.1623 4.362 16.1623 4.362L16.2263 4.319L16.2363 4.297C16.2363 4.297 16.2693 4.244 16.1833 4.233C16.1409 4.22626 16.0982 4.22225 16.0553 4.221L15.9783 4.2L15.9483 4.19C15.9483 4.19 15.7973 4.072 15.6683 4.018L15.5063 3.954L15.4533 3.942L15.3893 3.932C15.3893 3.932 15.3343 3.932 15.2483 3.856C15.1623 3.781 15.1303 3.738 15.0553 3.663L14.9593 3.567C14.9593 3.567 14.8733 3.501 14.8733 3.447C14.8833 3.362 15.0663 3.545 15.0663 3.545L15.1963 3.631C15.1963 3.631 15.3033 3.707 15.4963 3.717C15.6893 3.728 15.9263 3.663 15.9263 3.663C15.9263 3.663 15.9573 3.643 16.0643 3.674C16.1713 3.705 16.2583 3.77 16.2583 3.77L16.3443 3.846L16.4733 3.985L16.4943 3.975C16.5043 3.965 16.5593 3.91 16.4633 3.792C16.3663 3.673 16.2053 3.567 16.2053 3.567C16.2053 3.567 15.9903 3.438 15.7753 3.395C15.5613 3.352 15.4633 3.352 15.4633 3.352C15.4633 3.352 15.3023 3.352 15.2053 3.245C15.1083 3.137 15.0453 3.03 15.0453 3.03L15.0123 2.88C15.0123 2.88 14.9593 2.815 14.8523 2.772C14.7553 2.729 14.6463 2.665 14.6463 2.665C14.6463 2.665 14.4863 2.611 14.4743 2.535C14.4423 2.396 14.7443 2.535 14.9043 2.567C15.0543 2.599 15.1193 2.654 15.2693 2.687C15.3809 2.71911 15.4978 2.7293 15.6133 2.717C15.6883 2.717 15.7313 2.709 15.8063 2.697C15.8823 2.697 15.9363 2.687 16.0123 2.697C16.1193 2.719 16.1623 2.772 16.2693 2.815C16.3343 2.847 16.3663 2.878 16.4413 2.889C16.5063 2.9 16.6353 2.944 16.6133 2.879L16.5803 2.836C16.5263 2.761 16.4633 2.761 16.3983 2.708C16.2583 2.6 16.1943 2.515 16.0333 2.44C15.9422 2.39264 15.8444 2.35959 15.7433 2.342C15.6563 2.332 15.5923 2.354 15.5063 2.332C15.4093 2.3 15.3783 2.257 15.2813 2.204C15.1313 2.118 15.0443 2.042 14.8833 1.977C14.7881 1.94348 14.6913 1.91477 14.5933 1.891L14.5173 1.881L14.4873 1.87C14.3363 1.816 14.7543 1.699 14.9473 1.645C15.0443 1.624 15.0873 1.601 15.1833 1.612C15.2693 1.622 15.3663 1.742 15.4633 1.688C15.6033 1.613 15.3023 1.408 15.2053 1.376C15.0763 1.322 14.8513 1.366 14.8513 1.366L14.3573 1.354L14.2173 1.333C14.2173 1.333 14.1313 1.333 14.0673 1.258C14.0023 1.183 13.7563 0.881 13.4773 0.838C13.1873 0.795 13.1013 0.838 13.0803 0.818C12.8333 0.43 12.5743 0.345 12.3803 0.163C12.3273 0.109 12.2423 -0.01 12.2203 0.001L12.2213 0ZM13.3943 1.14H13.4453L13.4983 1.173C13.5429 1.21594 13.5792 1.2668 13.6053 1.323C13.6163 1.366 13.4773 1.313 13.4243 1.301C13.3695 1.28658 13.3183 1.26068 13.2743 1.225C13.2743 1.225 13.2513 1.193 13.3043 1.161C13.3322 1.14672 13.363 1.14019 13.3943 1.14ZM13.6463 1.67C13.6723 1.67 13.6913 1.676 13.6913 1.676L13.7443 1.71C13.7889 1.75294 13.8252 1.8038 13.8513 1.86C13.8623 1.903 13.7233 1.85 13.6703 1.838C13.6155 1.82358 13.5643 1.79768 13.5203 1.762C13.5203 1.762 13.4983 1.73 13.5633 1.698C13.587 1.6797 13.6163 1.67017 13.6463 1.671V1.67ZM11.7643 1.684C11.791 1.68265 11.8178 1.68399 11.8443 1.688C11.8443 1.688 11.8873 1.688 11.9513 1.719C12.0163 1.762 12.0593 1.891 12.0593 1.891C12.0593 1.891 12.0693 1.913 12.0163 1.913C11.9833 1.913 11.9833 1.86 11.9513 1.838C11.9083 1.806 11.8763 1.795 11.8223 1.774C11.7693 1.753 11.6943 1.784 11.6843 1.731C11.6843 1.699 11.7243 1.687 11.7643 1.684ZM10.9203 1.809C10.9623 1.797 10.9203 1.881 10.9203 1.881C10.9203 1.881 10.7813 2.106 10.5883 2.192C10.3953 2.278 10.2663 2.322 9.90029 2.354C9.84729 2.354 9.87029 2.321 9.87029 2.321C9.87029 2.321 10.2873 2.204 10.5243 2.075C10.6372 2.01212 10.7449 1.94022 10.8463 1.86C10.8683 1.83973 10.8933 1.82188 10.9203 1.809ZM11.6723 1.869C11.6723 1.869 11.7373 1.871 11.8123 1.924C11.8883 1.978 11.9523 2.161 11.9523 2.161C11.9523 2.161 11.9743 2.278 11.9203 2.321C11.8663 2.364 11.7803 2.29 11.7363 2.225C11.6979 2.17089 11.641 2.1328 11.5763 2.118C11.4903 2.086 11.3613 2.182 11.3403 2.118C11.3403 2.096 11.3503 2.042 11.3503 2.042C11.3503 2.042 11.3723 1.978 11.4693 1.925C11.5553 1.871 11.6723 1.87 11.6723 1.87V1.869ZM13.6703 2.284C13.7133 2.288 13.7733 2.321 13.8203 2.321C13.9603 2.321 14.0773 2.321 14.1743 2.342C14.2603 2.364 14.2813 2.417 14.2383 2.417C14.2071 2.42583 14.1747 2.42954 14.1423 2.428C14.0463 2.428 14.0563 2.385 13.9283 2.45C13.7983 2.514 13.8953 2.483 13.7133 2.547C13.5413 2.612 13.5833 2.44 13.5833 2.44C13.5833 2.44 13.5963 2.407 13.6173 2.32C13.6253 2.289 13.6443 2.281 13.6703 2.284ZM8.82629 2.782C8.89129 2.782 9.01029 2.826 9.01029 2.922C9.02029 3.019 8.94429 2.976 8.89029 3.008C8.85929 3.03 8.83829 3.041 8.79529 3.073C8.74129 3.116 8.68729 3.223 8.65529 3.19C8.61129 3.158 8.63329 3.04 8.63329 3.04C8.63329 3.04 8.66629 2.954 8.70929 2.868C8.76329 2.782 8.82629 2.782 8.82629 2.782ZM13.9633 2.893C13.9802 2.89354 13.997 2.89623 14.0133 2.901C14.0133 2.901 14.0453 2.911 14.0663 2.932C14.0883 2.954 14.1743 3.03 14.1743 3.072C14.1743 3.105 14.0353 3.05 13.9713 3.04C13.9063 3.029 13.8213 2.965 13.8213 2.965C13.8213 2.965 13.7993 2.945 13.8633 2.913C13.8943 2.8978 13.9288 2.89091 13.9633 2.893ZM12.0683 2.981C12.0796 2.98033 12.0763 2.99667 12.0583 3.03C12.0163 3.116 11.8873 3.223 11.8873 3.223C11.8873 3.223 11.7373 3.437 11.7053 3.469C11.5653 3.577 11.3933 3.513 11.3183 3.524C11.2543 3.534 11.2973 3.469 11.2973 3.469C11.2973 3.469 11.4803 3.395 11.5973 3.331C11.7553 3.252 12.0243 2.981 12.0683 2.981ZM9.86029 3.17C9.88329 3.17 9.90129 3.18 9.90129 3.213C9.91229 3.288 9.77329 3.341 9.77329 3.341C9.77329 3.341 9.73129 3.352 9.72029 3.277C9.70929 3.202 9.77329 3.191 9.77329 3.191C9.77329 3.191 9.82329 3.167 9.86029 3.17ZM12.5203 3.287C12.5383 3.277 12.5233 3.384 12.5233 3.384C12.5233 3.384 12.4903 3.525 12.4153 3.568C12.3193 3.622 12.0813 3.686 12.0603 3.654C12.0603 3.632 12.3713 3.534 12.5103 3.299L12.5203 3.287ZM13.9743 3.326C13.9918 3.32571 14.0093 3.32773 14.0263 3.332C14.0263 3.332 14.0563 3.342 14.0893 3.362C14.1213 3.395 14.1973 3.482 14.2083 3.525C14.2193 3.568 14.0683 3.515 13.9933 3.504C13.9293 3.493 13.8313 3.418 13.8313 3.418C13.8313 3.418 13.8113 3.385 13.8763 3.353C13.9061 3.33571 13.9398 3.32641 13.9743 3.326ZM12.6733 3.57C12.6933 3.564 12.6613 3.654 12.6613 3.654C12.6613 3.654 12.6183 3.794 12.5323 3.826C12.4253 3.858 12.0183 3.868 12.0073 3.836C11.9973 3.803 12.4793 3.76 12.6613 3.578L12.6733 3.57ZM14.0073 3.755C14.0274 3.75498 14.0475 3.75699 14.0673 3.761C14.0673 3.761 14.1003 3.771 14.1323 3.793C14.1643 3.825 14.2503 3.923 14.2613 3.976C14.2713 4.041 14.1113 3.976 14.0363 3.955C13.9688 3.93562 13.9061 3.90223 13.8523 3.857C13.8523 3.857 13.8313 3.826 13.8953 3.783C13.9291 3.76286 13.968 3.75312 14.0073 3.755ZM14.0073 4.292C14.0274 4.29198 14.0475 4.29399 14.0673 4.298C14.0673 4.298 14.1003 4.308 14.1323 4.33C14.1643 4.362 14.2503 4.46 14.2613 4.513C14.2713 4.567 14.1113 4.502 14.0363 4.48C13.9689 4.46122 13.9062 4.42852 13.8523 4.384C13.8523 4.384 13.8313 4.363 13.8953 4.32C13.9292 4.30021 13.9681 4.29082 14.0073 4.293V4.292ZM12.4393 4.806C12.5223 4.83 12.4463 5.435 12.2863 5.716C12.0803 6.0611 11.831 6.37835 11.5443 6.66C11.3943 6.767 11.4913 6.574 11.4913 6.574C11.4913 6.574 11.9093 5.995 12.1033 5.587C12.2433 5.297 12.3293 4.911 12.3933 4.835C12.4126 4.813 12.428 4.80333 12.4393 4.806ZM13.9893 4.814C14.0126 4.81464 14.0358 4.818 14.0583 4.824C14.0583 4.824 14.1003 4.834 14.1323 4.867C14.1643 4.9 14.2723 5.018 14.2823 5.072C14.2823 5.136 14.1003 5.049 14.0153 5.039C13.9407 5.01799 13.8714 4.98116 13.8123 4.931C13.8123 4.931 13.7893 4.888 13.8643 4.845C13.9014 4.82117 13.9453 4.81027 13.9893 4.814ZM13.9213 5.334C13.9414 5.33365 13.9615 5.33533 13.9813 5.339C13.9813 5.339 14.0143 5.351 14.0463 5.373C14.0783 5.405 14.1643 5.501 14.1753 5.554C14.1853 5.608 14.0253 5.544 13.9503 5.533C13.8836 5.51396 13.8216 5.48127 13.7683 5.437C13.7683 5.437 13.7483 5.404 13.8113 5.361C13.8446 5.34159 13.8828 5.33221 13.9213 5.334ZM13.8903 5.8H13.9383L13.9933 5.833C14.0383 5.87585 14.0749 5.92672 14.1013 5.983C14.1013 6.027 13.9713 5.973 13.9073 5.963C13.8433 5.953 13.7573 5.888 13.7573 5.888C13.7573 5.888 13.7353 5.856 13.8003 5.824C13.828 5.80903 13.8588 5.80081 13.8903 5.8ZM13.8313 6.257L13.8763 6.263L13.9193 6.285C13.9403 6.306 14.0033 6.37 14.0033 6.402C14.0033 6.445 13.8863 6.392 13.8433 6.392C13.8 6.37972 13.76 6.35784 13.7263 6.328C13.7263 6.328 13.7143 6.305 13.7563 6.273C13.7783 6.257 13.8063 6.256 13.8313 6.257ZM13.7413 6.679L13.7783 6.681L13.8213 6.703C13.8433 6.724 13.8953 6.778 13.8953 6.81C13.8853 6.832 13.7883 6.789 13.7453 6.789C13.7076 6.77567 13.6717 6.75788 13.6383 6.736C13.6383 6.736 13.6283 6.714 13.6713 6.693C13.6936 6.68417 13.7173 6.67943 13.7413 6.679ZM6.13229 6.886C6.25029 6.908 6.27229 6.918 6.26129 6.972C6.27129 7.026 6.12229 7.025 6.12229 7.025C6.12229 7.025 5.90629 7.069 5.93929 6.994C5.98229 6.918 6.13229 6.886 6.13229 6.886ZM13.6433 7.011C13.6653 7.011 13.6833 7.015 13.6833 7.015L13.7263 7.037C13.7473 7.058 13.8003 7.112 13.8003 7.144C13.7893 7.176 13.6923 7.134 13.6503 7.123C13.6063 7.112 13.5423 7.068 13.5423 7.068C13.5423 7.068 13.5323 7.046 13.5753 7.025C13.597 7.01641 13.62 7.01167 13.6433 7.011ZM13.5233 7.388L13.5533 7.39L13.5853 7.412C13.5953 7.422 13.6493 7.476 13.6493 7.498C13.6493 7.53 13.5733 7.498 13.5303 7.488C13.4983 7.478 13.4463 7.445 13.4463 7.445C13.4463 7.445 13.4363 7.423 13.4683 7.402C13.4846 7.39231 13.5043 7.38745 13.5233 7.388ZM10.4623 7.508C10.5231 7.5089 10.5838 7.51257 10.6443 7.519C10.9443 7.562 11.2343 7.831 11.1903 7.863C11.1463 7.895 11.0833 7.863 11.0613 7.863L10.9543 7.81L10.7923 7.767C10.7923 7.767 10.5023 7.702 10.2883 7.712C10.0743 7.722 9.88029 7.798 9.88029 7.798C9.88029 7.798 9.79429 7.842 9.77329 7.788C9.76229 7.724 9.80629 7.691 9.80629 7.691L9.81629 7.669C9.81629 7.669 10.0623 7.506 10.4623 7.508ZM5.34929 7.636L5.35929 7.638L5.38029 7.66C5.37029 7.66 5.41229 7.767 5.31629 7.874C5.21929 7.982 4.91929 8.551 4.85529 8.454C4.79029 8.379 5.14529 7.841 5.22029 7.734C5.27629 7.645 5.32729 7.636 5.34929 7.636ZM13.3993 7.753L13.4253 7.755L13.4563 7.767L13.5113 7.841C13.5003 7.873 13.4353 7.852 13.4033 7.841C13.3713 7.841 13.3273 7.798 13.3273 7.798C13.3273 7.798 13.3173 7.788 13.3493 7.768C13.3643 7.75866 13.3816 7.75348 13.3993 7.753ZM6.61629 8.056C6.63329 8.05 6.64529 8.064 6.65929 8.068L6.71229 8.089L6.74529 8.121L6.85329 8.228C6.89629 8.292 7.01329 8.508 6.99129 8.528C6.89529 8.625 6.86329 8.496 6.72429 8.335C6.58429 8.185 6.61629 8.056 6.61629 8.056ZM13.2493 8.106L13.2743 8.111L13.3063 8.121L13.3603 8.197C13.3603 8.218 13.2953 8.185 13.2633 8.185C13.2303 8.185 13.1883 8.142 13.1883 8.142C13.1883 8.142 13.1663 8.132 13.1983 8.121C13.2137 8.11184 13.2313 8.10701 13.2493 8.107V8.106ZM8.40029 8.497C8.43529 8.5 8.38729 8.562 8.38729 8.562C8.38729 8.562 8.20329 8.808 8.09629 8.959C7.95629 9.162 7.78429 9.473 7.75229 9.441C7.72029 9.409 7.90329 9.067 8.00029 8.884C8.10729 8.659 8.26829 8.541 8.33229 8.519C8.35352 8.50799 8.37655 8.50088 8.40029 8.498V8.497ZM5.34829 9.302L5.36929 9.324C5.36929 9.324 5.38029 9.366 5.30529 9.484C5.23029 9.602 5.17529 9.603 5.17529 9.603C5.17529 9.593 5.15529 9.55 5.21929 9.421C5.28329 9.292 5.34829 9.302 5.34829 9.302ZM4.03129 9.722C4.03756 9.72353 4.04317 9.72703 4.04729 9.732C4.07929 9.775 3.98329 9.968 3.98329 9.968C3.98329 9.968 3.88629 10.171 3.85329 10.085C3.82129 10.01 3.88729 9.871 3.88729 9.871C3.96229 9.805 3.99529 9.715 4.03129 9.722ZM12.5963 9.999C12.6923 10.01 12.6823 10.193 12.6823 10.236C12.7143 10.547 12.8443 10.86 13.0803 11.236C13.4133 11.762 13.9503 12.17 13.9283 12.203C13.8743 12.256 13.3383 11.837 13.1443 11.601C12.8223 11.214 12.5843 10.795 12.5103 10.269C12.4883 10.151 12.4883 9.978 12.5963 9.999ZM6.27229 10.149C6.29329 10.149 6.38929 10.183 6.38929 10.183L6.62529 10.279C6.63529 10.279 6.75529 10.333 6.85229 10.386L7.08629 10.536L7.15229 10.591C7.15229 10.613 7.22729 10.731 7.07629 10.699C6.92629 10.666 6.60429 10.419 6.47529 10.355C6.34529 10.291 6.13229 10.269 6.22929 10.183C6.23929 10.173 6.25029 10.149 6.27229 10.149ZM5.13229 10.742H5.15429C5.21929 10.742 5.21929 10.794 5.21929 10.794V10.827C5.21929 10.827 5.21829 11.021 5.22929 11.171C5.22929 11.214 5.34829 11.697 5.34829 11.697C5.34829 11.697 5.36929 11.74 5.32629 11.74C5.29429 11.74 5.26229 11.675 5.26229 11.675C5.26229 11.675 5.17529 11.547 5.14229 11.451C5.11129 11.365 5.10029 11.224 5.10029 11.224C5.10029 11.224 5.07829 11.042 5.07829 10.978C5.08929 10.892 5.08929 10.816 5.10029 10.773C5.10188 10.7654 5.10566 10.7584 5.11117 10.7529C5.11667 10.7474 5.12467 10.7436 5.13229 10.742ZM3.64229 10.999C3.65223 10.9975 3.66235 10.9975 3.67229 10.999C3.73629 11.01 3.70329 11.127 3.70329 11.181C3.70329 11.235 3.64129 11.331 3.61929 11.331C3.59829 11.331 3.55429 11.235 3.56529 11.181C3.57529 11.134 3.58229 11.014 3.64229 10.999ZM9.08429 11.892C9.20629 11.882 9.55929 12.389 10.0723 12.942C10.6523 13.566 11.3283 14.157 11.3503 14.232C11.3933 14.361 10.8773 13.952 10.5983 13.738C9.85729 13.168 8.95529 12.009 9.06329 11.902C9.06915 11.8967 9.07646 11.8932 9.08429 11.892ZM19.3573 12.415C19.3773 12.413 19.3943 12.439 19.3943 12.439L19.4163 12.47C19.4163 12.492 19.5443 12.996 19.5333 13.318C19.5113 13.768 19.4913 14.091 19.2233 14.435C18.9003 14.854 18.3413 15.285 18.4593 14.941C18.5343 14.737 19.0293 14.479 19.2223 13.91C19.3303 13.566 19.3523 13.243 19.3523 13.243L19.3303 12.589C19.3303 12.589 19.3183 12.536 19.3183 12.46C19.3303 12.428 19.3443 12.417 19.3573 12.415ZM13.8793 13.535C13.9793 13.546 14.0243 13.609 13.9063 13.695C13.7663 13.791 13.7133 13.78 13.6263 13.876C13.5303 13.994 13.4993 14.393 13.4023 14.232C13.3063 14.071 13.3703 13.845 13.5323 13.673C13.5755 13.6246 13.6293 13.5869 13.6895 13.5628C13.7497 13.5387 13.8146 13.5298 13.8793 13.535ZM6.08029 13.974C6.12129 13.966 6.22929 14.048 6.22929 14.048C6.28229 14.058 6.33629 14.156 6.33629 14.156C6.33629 14.156 6.35829 14.232 6.29329 14.253C6.22929 14.285 6.18629 14.22 6.18629 14.22C6.18629 14.22 6.04629 14.027 6.06629 13.984C6.06773 13.9814 6.06974 13.9791 6.07216 13.9774C6.07458 13.9757 6.07736 13.9745 6.08029 13.974ZM16.3873 15.499C16.4083 15.499 16.4523 15.521 16.5063 15.629C16.5603 15.737 16.4203 16.497 16.2483 16.389C16.1513 16.325 16.3013 16.133 16.3013 15.972C16.3013 15.843 16.2793 15.745 16.2793 15.638C16.2793 15.531 16.3873 15.499 16.3873 15.499ZM13.2003 16.824C13.2383 16.828 13.2483 16.882 13.1963 16.99C13.1213 17.151 13.1003 17.205 13.0893 17.356C13.0673 17.516 13.1653 17.966 13.0153 17.796C12.9613 17.72 12.9073 17.366 12.9503 17.194C12.9973 16.952 13.1363 16.819 13.2003 16.824ZM12.3803 18.942C12.4163 18.937 12.4343 18.955 12.4343 18.955C12.4563 18.998 12.4123 19.042 12.4013 19.053C12.3611 19.0746 12.3174 19.0891 12.2723 19.096C12.2083 19.106 12.2423 19.053 12.2423 19.053C12.2423 19.053 12.2833 18.987 12.3373 18.955C12.3505 18.9475 12.3652 18.943 12.3803 18.942ZM9.50329 19.17C9.58929 19.17 9.58929 19.213 9.58929 19.213C9.58929 19.245 9.55629 19.257 9.46929 19.246C9.39529 19.236 9.38529 19.214 9.39629 19.203C9.39629 19.193 9.41729 19.17 9.50329 19.17ZM10.1553 19.201L10.1793 19.203C10.1793 19.203 10.5443 19.267 10.7803 19.277C10.9523 19.288 11.0383 19.3 11.2103 19.289C11.3073 19.289 11.2533 19.277 11.4033 19.277C11.4573 19.267 11.4253 19.343 11.3823 19.354C11.2213 19.397 11.1563 19.374 11.0173 19.385C10.8983 19.395 10.8443 19.406 10.7263 19.406C10.5223 19.406 10.5023 19.418 10.2123 19.332C10.1583 19.311 10.0923 19.246 10.1143 19.225C10.1191 19.2184 10.1253 19.2129 10.1323 19.2088C10.1394 19.2046 10.1472 19.202 10.1553 19.201ZM7.72029 19.266C7.84629 19.269 7.80629 19.311 7.80629 19.311C7.80629 19.311 7.80529 19.353 7.73029 19.406C7.65429 19.46 7.62329 19.428 7.61229 19.428C7.60129 19.428 7.52629 19.385 7.52629 19.342C7.53729 19.299 7.65629 19.268 7.65629 19.268L7.72029 19.266ZM14.4813 20.746L14.5073 20.748L14.5283 20.791C14.5283 20.801 14.4423 20.921 14.3993 20.921C14.3463 20.909 14.3663 20.846 14.3663 20.846C14.3663 20.846 14.3453 20.781 14.4093 20.76C14.4322 20.7509 14.4566 20.7462 14.4813 20.746ZM13.6793 21.064C13.6886 21.064 13.6963 21.066 13.7023 21.07V21.113C13.7123 21.146 13.4323 21.458 13.2393 21.641C13.0573 21.813 12.7453 22.049 12.7453 22.049H12.7023V21.994L12.7143 21.973L12.7353 21.941L12.7573 21.908L12.7783 21.878L12.8433 21.801L12.9933 21.662L13.1433 21.522L13.3803 21.285C13.3803 21.285 13.4653 21.19 13.4973 21.168C13.5293 21.147 13.5513 21.125 13.5833 21.104C13.6153 21.088 13.6533 21.066 13.6793 21.064ZM12.1263 22.357C12.1351 22.3554 12.1442 22.3559 12.1529 22.3583C12.1615 22.3607 12.1695 22.3651 12.1763 22.371C12.2093 22.446 12.1563 22.467 12.1563 22.467L12.0583 22.543C12.0473 22.543 11.9833 22.597 11.9623 22.564C11.9403 22.532 11.9723 22.489 11.9723 22.478C11.9723 22.467 12.0373 22.393 12.0913 22.371C12.102 22.3642 12.1138 22.3594 12.1263 22.357ZM11.0793 23.351C11.1233 23.346 11.1553 23.412 11.1553 23.412C11.1553 23.412 11.1773 23.443 11.1773 23.486C11.1773 23.519 11.0803 23.508 11.0273 23.551C10.9623 23.594 11.0923 23.724 10.8873 23.713C10.7703 23.703 10.8343 23.595 10.8453 23.584L10.9193 23.477C10.9733 23.401 11.0063 23.39 11.0593 23.357L11.0793 23.351Z" fill="#494949"/>
</svg>
