<svg width="24" height="24" viewBox="0 0 24 24" fill="none" xmlns="http://www.w3.org/2000/svg">
<path d="M23.9024 6.86984C23.5724 3.65184 21.4324 2.97484 19.5484 2.66584C18.6024 2.50584 16.9184 2.36584 15.8324 2.32584C14.8864 2.26584 12.6644 2.23584 11.9974 2.23584C11.3404 2.23584 9.10738 2.26584 8.16238 2.32584C7.08638 2.36584 5.39238 2.50584 4.44638 2.66584C2.56338 2.98484 0.420376 3.65984 0.092376 6.86984C0.012376 7.74684 -0.00762396 8.89284 0.00237604 10.1178C0.032376 12.1488 0.202376 13.5238 0.302376 14.4808C0.372376 15.1378 0.640376 17.1008 0.989376 18.1168C1.46738 19.5118 1.90538 19.9198 2.41338 20.3388C3.35038 21.0958 4.88438 21.3348 5.20338 21.3948C6.93638 21.7048 10.4434 21.7628 11.9874 21.7628C13.5314 21.7628 17.0374 21.7128 18.7714 21.3948C19.1004 21.3348 20.6344 21.1048 21.5614 20.3388C22.0694 19.9198 22.5074 19.5118 22.9854 18.1168C23.3354 17.1008 23.6134 15.1378 23.6834 14.4808C23.7834 13.5238 23.9624 12.1488 23.9824 10.1178C24.0224 8.89284 23.9924 7.74684 23.9024 6.86984ZM22.7264 12.2698C22.5364 14.8398 22.3084 16.3738 21.9794 17.4898C21.6894 18.4658 21.3424 19.1128 20.8144 19.5818C19.9474 20.3688 18.7514 20.5378 18.0544 20.6378C16.5404 20.8678 13.9994 20.9378 11.9974 20.9378C9.99538 20.9378 7.45438 20.8578 5.94038 20.6378C5.24338 20.5378 4.04738 20.3688 3.18038 19.5818C2.66238 19.1128 2.30438 18.4558 2.02538 17.4888C1.69638 16.3838 1.46738 14.8388 1.27838 12.2688C1.16838 10.7258 1.18838 8.21484 1.35838 6.86884C1.61638 4.85784 2.61338 3.85084 4.74538 3.47284C5.74138 3.29284 7.08538 3.16284 8.35138 3.10284C9.36738 3.03284 11.0514 3.00284 11.9874 3.01284C12.9234 3.00284 14.6074 3.04284 15.6234 3.10284C16.8984 3.16284 18.2334 3.29284 19.2294 3.47284C21.3714 3.85084 22.3684 4.86784 22.6174 6.86984C22.8164 8.21484 22.8454 10.7258 22.7264 12.2698ZM17.5254 3.87984C16.9774 6.34184 16.7584 7.46784 16.3094 9.24984C15.8814 10.9648 15.5424 12.5478 14.9744 13.3148C14.3874 14.0918 13.6094 14.2618 13.0814 14.3208C12.8024 14.3508 12.6034 14.3608 12.0154 14.3708C11.6563 14.3783 11.2972 14.3616 10.9404 14.3208C10.4124 14.2608 9.62538 14.0918 9.04838 13.3148C8.47038 12.5478 8.14138 10.9648 7.71338 9.25084C7.24338 7.47784 7.03538 6.34084 6.47738 3.88084C6.47738 3.88084 5.92938 3.90084 5.68038 3.92084C5.35138 3.94084 5.09238 3.97084 4.81338 4.01084C5.15638 9.38284 5.50538 15.0898 5.93938 20.1408C6.73238 20.2405 7.53023 20.297 8.32938 20.3098C8.65938 19.0438 9.07738 17.2898 9.53638 16.5428C9.91438 15.9348 10.5024 15.8658 10.8314 15.8258C11.3494 15.7558 11.7874 15.7458 11.9964 15.7458C12.1964 15.7358 12.6334 15.7458 13.1614 15.8258C13.4914 15.8758 14.0784 15.9358 14.4564 16.5428C14.9264 17.2898 15.3334 19.0428 15.6624 20.3088C15.6624 20.3088 16.0204 20.2988 16.8274 20.2588C17.238 20.2408 17.6467 20.2008 18.0534 20.1388C18.5114 14.7488 18.8384 9.41084 19.1794 4.01084C18.8994 3.97084 18.6414 3.94084 18.3124 3.92084C18.0824 3.90084 17.5254 3.87984 17.5254 3.87984Z" fill="#494949"/>
</svg>
