<svg width="24" height="24" viewBox="0 0 24 24" fill="none" xmlns="http://www.w3.org/2000/svg">
<path d="M12 18.1619C5.373 18.1619 0 15.4039 0 11.9989C0 8.59589 5.373 5.83789 12 5.83789C18.628 5.83789 24 8.59589 24 11.9989C24 15.4039 18.628 18.1619 12 18.1619ZM7.602 7.16989C3.701 7.97789 0.973 9.82989 0.973 11.9839C0.973 13.1769 1.811 14.2779 3.221 15.1599C3.338 15.2319 3.415 15.2459 3.472 15.2429C3.574 15.2369 3.632 15.1729 3.673 15.0969C3.70773 15.0324 3.74008 14.9667 3.77 14.8999C4.23 13.8159 5.848 10.0669 7.973 7.52389C8.01197 7.47844 8.04677 7.42957 8.077 7.37789C8.123 7.29389 8.113 7.22689 8.077 7.18589C8.019 7.12089 7.853 7.12089 7.602 7.16989ZM9.742 8.89989C8.569 11.7489 10.789 11.3959 11.39 11.2629C12.41 11.0369 13.384 10.6499 14.164 10.3379C16.386 9.44889 17.566 8.55789 17.957 8.21489C17.9942 8.18322 18.0302 8.1502 18.065 8.11589C18.12 8.05789 18.162 7.99689 18.162 7.91589C18.162 7.82256 18.083 7.74822 17.925 7.69289L17.861 7.66789C16.163 7.12689 14.137 6.81189 11.959 6.81189C11.942 6.81189 11.9 6.80989 11.842 6.81189C11.582 6.81989 11.292 6.87789 11.055 7.00089C10.277 7.40489 9.939 8.42389 9.742 8.89989ZM20.327 8.90289C20.2932 8.968 20.2612 9.03402 20.231 9.10089C19.771 10.1829 18.154 13.9309 16.029 16.4739C15.99 16.5197 15.9552 16.5689 15.925 16.6209C15.875 16.7049 15.886 16.7739 15.925 16.8139C15.982 16.8779 16.148 16.8789 16.399 16.8299C20.299 16.0199 23.027 14.1699 23.027 12.0149C23.027 10.8219 22.191 9.72189 20.78 8.83989C20.664 8.76689 20.586 8.75289 20.53 8.75689C20.427 8.76389 20.37 8.82689 20.327 8.90289ZM14.258 15.0999C15.431 12.2509 13.21 12.6059 12.611 12.7379C11.589 12.9629 10.615 13.3509 9.836 13.6619C7.613 14.5499 6.434 15.4439 6.041 15.7849C5.99367 15.8269 5.95833 15.8602 5.935 15.8849C5.878 15.9419 5.838 16.0029 5.838 16.0849C5.838 16.1779 5.918 16.2549 6.074 16.3079C6.086 16.3129 6.125 16.3299 6.14 16.3339C7.836 16.8739 9.862 17.1899 12.04 17.1899H12.158C12.4309 17.1838 12.6994 17.119 12.945 16.9999C13.723 16.5959 14.062 15.5769 14.258 15.0999Z" fill="#494949"/>
</svg>
