<svg width="24" height="24" viewBox="0 0 24 24" fill="none" xmlns="http://www.w3.org/2000/svg">
<path d="M21.941 12.063L21.775 12.01L21.32 12.028C21.0691 12.0012 20.826 11.9247 20.605 11.803L20.074 11.431C19.4694 11.0063 18.8377 10.6215 18.183 10.279L16.972 9.67898C16.1509 9.28362 15.3171 8.9151 14.472 8.57398L11.814 7.51898C11.4616 7.37394 11.0888 7.28421 10.709 7.25298L9.728 7.23598C9.21884 7.22037 8.70997 7.27556 8.216 7.39998L7.79 7.52398C7.59 7.58298 7.507 7.63698 7.513 7.67798L7.56 7.71298L8.08 7.56598L8.245 7.54798L8.411 7.57698L8.57 7.59498C8.61282 7.59212 8.65453 7.58011 8.69231 7.55975C8.73009 7.5394 8.76306 7.51117 8.789 7.47698C8.859 7.38898 9.00267 7.35165 9.22 7.36498L9.439 7.38798L9.039 7.51198L8.72 7.78998C8.62086 7.79497 8.52192 7.77682 8.431 7.73698L8.183 7.66598L8.029 7.74898L8.165 7.87898C8.2223 7.96828 8.25091 8.07296 8.247 8.17898C8.19501 8.11423 8.1295 8.06161 8.05505 8.02482C7.98061 7.98803 7.89902 7.96795 7.816 7.96598L7.527 7.98998L7.361 7.91898L7.078 8.16698L7.06 8.21998L7.147 8.19998L7.318 8.09998L7.147 8.27698L7.105 8.38398C7.09967 8.51998 7.141 8.59065 7.229 8.59598H7.3C7.29431 8.5328 7.30373 8.46917 7.32748 8.41035C7.35124 8.35153 7.38864 8.29919 7.4366 8.25768C7.48457 8.21616 7.54172 8.18665 7.60334 8.17157C7.66496 8.1565 7.72929 8.1563 7.791 8.17098C7.85506 8.17278 7.91804 8.18794 7.9759 8.21549C8.03376 8.24304 8.08523 8.28238 8.127 8.33098C8.16585 8.3795 8.19469 8.43523 8.21186 8.49497C8.22902 8.5547 8.23417 8.61725 8.227 8.67898C8.22698 8.75913 8.20022 8.83699 8.15095 8.90021C8.10168 8.96342 8.03272 9.00839 7.955 9.02798L7.914 9.05198L7.95 9.09998L8.074 9.08198C8.20834 9.04375 8.33283 8.97696 8.43897 8.88618C8.54512 8.7954 8.6304 8.68277 8.689 8.55598L9.043 7.90598L10.036 8.27898C10.262 8.17841 10.4712 8.04348 10.656 7.87898C10.5873 8.03963 10.4979 8.19058 10.39 8.32798L10.095 8.57598L9.195 8.23298L9.041 8.54098L9.927 8.87698L10.146 8.99598L10.353 9.17898L10.653 9.18998C10.453 8.95398 10.363 8.78998 10.369 8.70598C10.4003 8.59317 10.4595 8.49003 10.541 8.40598L10.86 7.98598L10.682 8.70098C10.7679 8.87932 10.8746 9.04683 11 9.19998L11.779 9.34198L12.063 9.46598L11.39 9.42498L10.29 9.44798L9.711 9.58998L9.474 10.009L9.674 10.399L9.952 10.435L10.218 10.116L10.088 9.90298L10.744 9.84998L11.878 10.004H12.315L12.605 9.53698L12.1 8.48198L12.058 8.30498C12.058 8.10498 12.147 8.02098 12.324 8.02698C12.3662 8.01891 12.4097 8.02 12.4514 8.03018C12.4932 8.04036 12.5322 8.05939 12.566 8.08598C12.3893 8.08465 12.301 8.14565 12.301 8.26898C12.2998 8.30375 12.3078 8.33822 12.324 8.36898L12.9 9.45098C13.1388 9.53135 13.3874 9.57912 13.639 9.59298C13.9144 9.61382 14.191 9.61182 14.466 9.58698C14.2975 9.68217 14.1092 9.73694 13.916 9.74698L13.201 9.78198L12.829 9.72898L12.646 10.029L13.446 10.148C13.818 10.1629 14.1904 10.1589 14.562 10.136L15.271 10.094C15.342 10.1 15.471 10.194 15.649 10.384L16.465 11.276C16.5814 11.4121 16.7213 11.5262 16.878 11.613C17.0656 11.7034 17.2699 11.7538 17.478 11.761L19.239 11.855L20.148 12.676L20.692 12.718L20.881 12.534L20.592 12.221L20.308 12.192C20.212 12.1706 20.1227 12.126 20.048 12.062L19.239 11.323L18.624 11.276C18.5508 11.2762 18.4787 11.2585 18.4139 11.2245C18.349 11.1906 18.2935 11.1413 18.252 11.081L17.815 10.543L17.236 10.012C17.7527 10.2529 18.2135 10.5989 18.589 11.028L19.198 11.069C19.3351 11.0919 19.4613 11.1581 19.558 11.258L20.273 11.891C20.3922 11.9498 20.5242 11.978 20.657 11.973L20.846 12.086L21.13 12.411L21.768 12.381C21.9147 12.3756 21.9933 12.309 22.004 12.181L21.941 12.063ZM9.321 14.42V15.188L8.866 15.277C8.72613 15.2801 8.58757 15.2495 8.46205 15.1877C8.33654 15.1259 8.22778 15.0348 8.145 14.922C7.95414 14.6474 7.86052 14.3169 7.879 13.983C7.86024 13.6281 7.97152 13.2786 8.192 13C8.30113 12.8814 8.43499 12.7882 8.58412 12.727C8.73325 12.6658 8.894 12.6382 9.055 12.646C9.38048 12.6456 9.6937 12.7701 9.93 12.994V12.394C9.60798 12.2845 9.27013 12.2288 8.93 12.229C8.44535 12.2141 7.97422 12.39 7.618 12.719C7.44881 12.8785 7.31549 13.0722 7.22687 13.2872C7.13825 13.5022 7.09637 13.7336 7.104 13.966C7.09092 14.1987 7.1279 14.4315 7.21242 14.6486C7.29695 14.8658 7.42707 15.0624 7.594 15.225C7.95338 15.5416 8.42153 15.7065 8.9 15.685C9.28569 15.6999 9.66802 15.6082 10.005 15.42V14.03H9.149C9.24789 14.1374 9.30838 14.2745 9.321 14.42ZM2.762 12.624V14.946C2.77329 15.2478 2.72504 15.5488 2.62 15.832C2.4797 16.1081 2.26494 16.3395 2 16.5H2.78C3.02122 16.261 3.20705 15.972 3.32437 15.6534C3.4417 15.3348 3.48765 14.9943 3.459 14.656V12.305H2.638C2.71796 12.392 2.76223 12.5058 2.762 12.624ZM6.762 15.206L5.581 12.293H5.143L4.021 15.117C3.95412 15.309 3.83029 15.4761 3.666 15.596H4.588C4.55194 15.5754 4.52133 15.5466 4.49871 15.5118C4.47609 15.477 4.46214 15.4373 4.458 15.396L4.499 15.236L4.671 14.752H5.841L6.041 15.325C6.06456 15.373 6.06845 15.4283 6.05182 15.4791C6.03519 15.5299 5.99937 15.5722 5.952 15.597H7.04C6.90951 15.4982 6.81248 15.3617 6.762 15.206ZM4.812 14.367L5.262 13.262L5.675 14.367H4.812ZM19.359 15.289L18.674 14.018C18.8546 13.9603 19.0123 13.847 19.1247 13.6944C19.2371 13.5418 19.2985 13.3575 19.3 13.168C19.3007 12.5933 18.891 12.3057 18.071 12.305H16.937C17.0178 12.3914 17.0622 12.5057 17.061 12.624V15.6H17.9C17.8112 15.4949 17.7667 15.3593 17.776 15.222V12.7L18.037 12.682C18.1075 12.6762 18.1785 12.6861 18.2447 12.711C18.311 12.736 18.3708 12.7753 18.42 12.8262C18.4692 12.8771 18.5064 12.9383 18.5291 13.0054C18.5518 13.0724 18.5592 13.1437 18.551 13.214C18.5619 13.3053 18.5526 13.3978 18.5237 13.4851C18.4948 13.5724 18.4471 13.6523 18.384 13.719C18.3208 13.7858 18.2437 13.8379 18.1582 13.8716C18.0726 13.9053 17.9807 13.9198 17.889 13.914L18.598 15.385C18.6207 15.4485 18.6623 15.5035 18.7171 15.5427C18.772 15.5818 18.8376 15.6032 18.905 15.604H19.638C19.5214 15.5225 19.4258 15.4146 19.359 15.289ZM13.457 12.305H12.547C12.6235 12.3621 12.6836 12.4384 12.721 12.5262C12.7584 12.6141 12.7719 12.7103 12.76 12.805V14.471C12.7587 14.963 12.536 15.2093 12.092 15.21C11.9924 15.2246 11.8907 15.2157 11.7951 15.1841C11.6995 15.1524 11.6126 15.0988 11.5414 15.0276C11.4701 14.9564 11.4166 14.8695 11.3849 14.7739C11.3532 14.6783 11.3444 14.5766 11.359 14.477V12.305H10.491C10.5418 12.3481 10.5817 12.4027 10.6072 12.4642C10.6328 12.5258 10.6433 12.5925 10.638 12.659V14.325C10.6145 14.5104 10.6344 14.6988 10.6962 14.8752C10.7581 15.0517 10.8601 15.2113 10.9943 15.3415C11.1284 15.4716 11.291 15.5688 11.4692 15.6253C11.6474 15.6818 11.8363 15.6961 12.021 15.667C12.184 15.6763 12.3471 15.6523 12.5005 15.5964C12.6539 15.5406 12.7942 15.454 12.913 15.342C13.0268 15.2183 13.1143 15.0729 13.1702 14.9144C13.2261 14.7559 13.2491 14.5877 13.238 14.42V12.807C13.2275 12.7115 13.2421 12.6149 13.2806 12.5268C13.319 12.4387 13.3798 12.3622 13.457 12.305ZM16.423 15.206L15.247 12.293H14.8L13.677 15.117C13.6104 15.3089 13.4869 15.476 13.323 15.596H14.256C14.2199 15.5754 14.1893 15.5466 14.1667 15.5118C14.1441 15.477 14.1301 15.4373 14.126 15.396L14.162 15.236L14.327 14.752H15.5L15.707 15.325C15.7279 15.3734 15.7304 15.4277 15.714 15.4778C15.6976 15.5279 15.6635 15.5703 15.618 15.597H16.705C16.5705 15.5012 16.4714 15.3638 16.423 15.206ZM14.479 14.367L14.916 13.262L15.341 14.367H14.479Z" fill="#494949"/>
</svg>
