<svg width="24" height="24" viewBox="0 0 24 24" fill="none" xmlns="http://www.w3.org/2000/svg">
<g clip-path="url(#clip0_1794_24015)">
<path d="M4.165 7.16895V12.3689C4.165 13.0459 3.721 13.4479 3.002 13.4479C2.284 13.4479 1.903 12.9189 1.903 12.3479V11.4179H0V12.3699C0 13.3419 0.296 15.0769 3.024 15.0769C5.751 15.0769 6.132 13.2149 6.132 12.3269V7.16995L4.165 7.16895ZM9.083 9.32494C7.285 9.32494 6.483 10.9729 6.483 12.3909C6.483 13.8069 7.392 15.1809 9.252 15.1809C10.88 15.2029 11.959 14.1459 11.959 13.3629H10.161C10.161 13.3629 9.95 13.8709 9.315 13.8709C8.681 13.8709 8.322 13.5109 8.322 12.6439H11.98C11.98 9.91695 10.627 9.32494 9.083 9.32494ZM14.93 9.32395C13.133 9.32395 12.33 10.9719 12.33 12.3899C12.33 13.8059 13.239 15.1799 15.1 15.1799C16.728 15.2019 17.806 14.1449 17.806 13.3619H16.01C16.01 13.3619 15.798 13.8699 15.164 13.8699C14.529 13.8699 14.17 13.5099 14.17 12.6429H17.827C17.827 9.91594 16.475 9.32295 14.931 9.32295M21.674 9.38594C20.761 9.38594 20.356 9.88295 20.334 9.90795C20.206 10.0619 20.047 10.2249 20.047 9.82995V9.53395H18.227V16.8289H20.067V14.8199C20.067 14.6719 20.215 14.6939 20.322 14.8199C20.428 14.9479 20.892 15.2639 21.697 15.2639C23.156 15.2639 24.001 13.9959 24.001 12.2619C24.001 10.0209 22.585 9.38594 21.674 9.38594ZM9.274 10.5059C9.95 10.5059 10.245 11.0139 10.245 11.5429H8.385C8.385 10.9709 8.618 10.5069 9.273 10.5069M15.119 10.5069C15.796 10.5069 16.092 11.0149 16.092 11.5439H14.23C14.23 10.9719 14.463 10.5079 15.118 10.5079M21.038 10.8049C21.97 10.8049 22.138 11.5239 22.138 12.2639C22.138 13.0039 22.011 13.9759 21.125 13.9759C20.236 13.9759 20.003 13.4059 20.023 12.3279C20.045 11.2489 20.466 10.8049 21.038 10.8049ZM23.32 15.3709C23.1646 15.3709 23.0155 15.4327 22.9056 15.5426C22.7957 15.6525 22.734 15.8015 22.734 15.9569C22.7342 16.0726 22.7687 16.1855 22.833 16.2816C22.8974 16.3776 22.9887 16.4525 23.0956 16.4966C23.2024 16.5408 23.32 16.5523 23.4334 16.5297C23.5468 16.507 23.6509 16.4514 23.7327 16.3696C23.8144 16.2878 23.8701 16.1837 23.8927 16.0703C23.9153 15.9569 23.9038 15.8394 23.8597 15.7325C23.8155 15.6257 23.7407 15.5343 23.6446 15.47C23.5486 15.4056 23.4356 15.3711 23.32 15.3709ZM23.32 15.4329C23.459 15.4329 23.5923 15.4882 23.6905 15.5864C23.7888 15.6847 23.844 15.818 23.844 15.9569C23.8437 16.0958 23.7884 16.229 23.6902 16.3272C23.592 16.4254 23.4589 16.4807 23.32 16.4809C23.181 16.4807 23.0478 16.4254 22.9494 16.3272C22.851 16.2291 22.7955 16.0959 22.795 15.9569C22.795 15.6669 23.03 15.4329 23.32 15.4329ZM23.11 15.6349V16.2559H23.182V15.9869H23.358L23.474 16.2569H23.554L23.433 15.9689C23.4611 15.9618 23.4862 15.946 23.505 15.9239C23.5324 15.8918 23.5476 15.8511 23.548 15.8089C23.548 15.7059 23.468 15.6349 23.353 15.6349H23.11ZM23.18 15.7029H23.352C23.424 15.7029 23.47 15.7439 23.47 15.8079C23.47 15.8799 23.421 15.9239 23.342 15.9239H23.18V15.7029Z" fill="#494949"/>
</g>
<defs>
<clipPath id="clip0_1794_24015">
<rect width="24" height="24" fill="white"/>
</clipPath>
</defs>
</svg>
