<svg width="24" height="24" viewBox="0 0 24 24" fill="none" xmlns="http://www.w3.org/2000/svg">
<path d="M13.923 14.1748C13.9237 14.2214 13.9373 14.2454 13.964 14.2468C13.9854 14.2452 14.0057 14.2368 14.022 14.2228L21.502 9.36878C21.6284 9.28029 21.7798 9.23472 21.934 9.23878H23.578C23.83 9.23878 24 9.40678 24 9.65878V12.7978C24 13.1778 23.916 13.3978 23.58 13.5988L21.586 14.7988C21.5661 14.8124 21.543 14.8207 21.519 14.8228C21.495 14.8228 21.471 14.8038 21.471 14.7348V11.0718C21.471 11.0288 21.459 11.0008 21.43 11.0008C21.4086 11.0023 21.3883 11.0108 21.372 11.0248L15.906 14.5758C15.7823 14.6602 15.6357 14.7045 15.486 14.7028H11.862C11.608 14.7028 11.44 14.5348 11.44 14.2808V9.75678C11.44 9.72378 11.425 9.69278 11.396 9.69278C11.3749 9.69456 11.355 9.70296 11.339 9.71678L7.732 11.8798C7.696 11.9038 7.686 11.9208 7.686 11.9378C7.686 11.9518 7.694 11.9668 7.718 11.9928L10.295 14.5678C10.329 14.6018 10.353 14.6278 10.353 14.6568C10.353 14.6808 10.314 14.6998 10.269 14.6998H7.94C7.757 14.6998 7.616 14.6738 7.517 14.5748L5.955 13.0148C5.94897 13.0078 5.94163 13.0021 5.93339 12.998C5.92515 12.9939 5.91619 12.9914 5.907 12.9908C5.88998 12.9916 5.87346 12.9968 5.859 13.0058L3.249 14.5758C3.1242 14.6596 2.97628 14.7023 2.826 14.6978H0.425C0.168 14.6998 0 14.5298 0 14.2788V11.1988C0 10.8188 0.084 10.5988 0.422 10.3988L2.43 9.19178C2.44552 9.18175 2.46352 9.17621 2.482 9.17578C2.514 9.17578 2.53 9.20578 2.53 9.27578V13.3998C2.53 13.4428 2.54 13.4628 2.571 13.4628C2.5926 13.4596 2.61315 13.4514 2.631 13.4388L9.407 9.35978C9.53828 9.27116 9.69482 9.22763 9.853 9.23578H13.501C13.753 9.23578 13.923 9.40378 13.923 9.65578L13.921 14.1738L13.923 14.1748Z" fill="#494949"/>
</svg>
