<svg width="24" height="24" viewBox="0 0 24 24" fill="none" xmlns="http://www.w3.org/2000/svg">
<path d="M21.1076 18.3159H18.8506C18.864 18.1867 18.9219 18.0662 19.0144 17.975C19.1069 17.8837 19.2282 17.8275 19.3576 17.8159H21.6426L21.6346 17.3379H19.2116C18.8455 17.3419 18.4952 17.4876 18.2341 17.7443C17.9731 18.0011 17.8217 18.3489 17.8116 18.7149C17.8106 18.7266 17.8122 18.7385 17.8164 18.7495C17.8206 18.7605 17.8272 18.7704 17.8358 18.7785C17.8443 18.7865 17.8546 18.7926 17.8658 18.7961C17.8771 18.7997 17.889 18.8006 17.9006 18.7989L20.6506 18.7889C20.7166 18.7959 20.7779 18.8261 20.8237 18.8741C20.8694 18.922 20.8967 18.9847 20.9006 19.0509C20.8986 19.0882 20.8892 19.1247 20.873 19.1583C20.8568 19.1919 20.8341 19.222 20.8062 19.2469C20.7783 19.2717 20.7458 19.2907 20.7105 19.3029C20.6752 19.3151 20.6379 19.3202 20.6006 19.3179H17.5806V17.3359H16.6896V19.3179H15.0516C14.9804 19.3291 14.9075 19.3237 14.8387 19.3019C14.77 19.2802 14.7072 19.2428 14.6553 19.1927C14.6035 19.1426 14.5639 19.0811 14.5399 19.0131C14.5158 18.9451 14.5078 18.8725 14.5166 18.8009V17.3229H13.0396C12.8936 17.4229 12.7526 17.5309 12.6016 17.6229L11.7246 18.1619L10.5866 17.3309H7.14161C6.76205 17.3142 6.38814 17.4275 6.08161 17.6519C5.92217 17.7561 5.78601 17.8921 5.68172 18.0515C5.57743 18.2109 5.50725 18.3901 5.47561 18.5779H6.07561C5.82889 18.7548 5.64164 19.0024 5.53861 19.2879H3.56261C3.41851 19.2992 3.2758 19.253 3.16576 19.1592C3.05572 19.0655 2.98734 18.932 2.97561 18.7879V17.3129H2.09961V18.8479C2.09961 19.3999 2.62461 19.7809 3.46561 19.7809H8.81461V19.2809H6.69061C6.70682 19.1491 6.76781 19.0268 6.86337 18.9345C6.95893 18.8422 7.08327 18.7855 7.21561 18.7739H9.14161V18.2669H6.66561C6.63661 18.1179 6.91361 17.8259 7.12661 17.8259H9.45561V17.5539L10.9626 18.6359L9.93261 19.2809H8.81461V19.7809H10.1086C10.2476 19.6869 10.3786 19.5879 10.5216 19.5009L11.4216 18.9539L12.5656 19.7709H13.8656L12.1446 18.4769L13.0286 17.8999C13.2166 17.7759 13.4146 17.6719 13.6076 17.5589V18.8589C13.6076 19.4089 13.7486 19.7899 14.8556 19.7899L21.1046 19.7749C21.2056 19.7835 21.3072 19.771 21.403 19.7382C21.4989 19.7054 21.5869 19.653 21.6614 19.5843C21.7359 19.5157 21.7952 19.4322 21.8357 19.3394C21.8762 19.2465 21.897 19.1462 21.8966 19.0449C21.8873 18.8441 21.7992 18.6551 21.6516 18.5186C21.5039 18.3822 21.3085 18.3094 21.1076 18.3159ZM11.9996 16.6109C15.4456 16.6109 17.6996 15.5019 19.0056 14.0769H17.6866C16.0755 15.3557 14.05 15.9964 11.9966 15.8769C6.73761 15.8769 4.79661 12.9219 4.79661 10.3769C4.83461 8.10492 6.91461 4.96992 12.1246 4.86692C12.3246 4.86092 12.4746 5.04092 12.3376 5.21092C11.4476 6.31092 8.90861 9.85192 8.61961 10.3109C8.26843 10.7722 8.05363 11.3227 7.99961 11.8999C7.97353 12.1188 7.99952 12.3408 8.07546 12.5478C8.1514 12.7547 8.27514 12.9408 8.43661 13.0909C9.25722 13.6171 10.2441 13.8196 11.2056 13.6589H18.9866C19.1107 13.6692 19.2351 13.6425 19.344 13.5822C19.4529 13.5218 19.5415 13.4306 19.5986 13.3199C20.1728 12.4588 20.4854 11.4498 20.4986 10.4149C20.4986 8.43792 19.2156 5.94792 15.9656 4.82292L15.5996 5.34992C18.1776 6.57292 19.2426 8.17292 19.2426 10.4119C19.2586 11.0697 19.0714 11.7164 18.7066 12.2639H11.1396C10.6866 12.2639 10.6206 11.7499 10.7846 11.4639C11.433 10.3086 12.1573 9.19749 12.9526 8.13792C13.7085 7.13506 14.4786 6.14296 15.2626 5.16192C15.4756 4.88392 15.3326 4.61592 14.9076 4.52892C13.946 4.31918 12.9648 4.21291 11.9806 4.21192C5.77161 4.20892 3.49961 7.77492 3.49961 10.4179C3.49961 13.2849 5.78761 16.6109 11.9996 16.6109Z" fill="#494949"/>
</svg>
