<svg width="24" height="24" viewBox="0 0 24 24" fill="none" xmlns="http://www.w3.org/2000/svg">
<path d="M11.999 12.8759C11.963 12.8759 11.894 12.8299 11.777 12.6159C11.2881 11.7037 10.6156 10.9026 9.802 10.2629C9.16361 9.76309 8.45542 9.35947 7.7 9.06495L7.355 8.92895C6.343 8.52895 5.294 8.11595 4.32 7.55195C4.21204 7.49083 4.10535 7.42748 4 7.36195C4.194 7.02195 4.42 6.69695 4.67 6.39995C5.03229 5.96579 5.45413 5.58502 5.923 5.26895C6.42523 4.93148 6.9691 4.66056 7.541 4.46295C8.759 4.02895 10.218 3.81595 11.999 3.81395C13.782 3.81595 15.24 4.02895 16.458 4.46395C17.0302 4.66116 17.5744 4.93175 18.077 5.26895C18.5458 5.58472 18.9676 5.96514 19.33 6.39895C19.58 6.69695 19.805 7.02195 20 7.36195C19.896 7.42662 19.7893 7.49062 19.68 7.55395C18.704 8.11795 17.657 8.53095 16.643 8.92995L16.298 9.06595C15.5433 9.36065 14.8358 9.76426 14.198 10.2639C13.3843 10.9039 12.7118 11.7054 12.223 12.6179C12.106 12.8309 12.036 12.8759 11.999 12.8759ZM11.999 19.9489C10.455 19.9469 9.201 19.8199 8.169 19.5619C7.156 19.3099 6.314 18.9219 5.593 18.374C5.04044 17.9494 4.5689 17.4287 4.201 16.8369C3.8564 16.2847 3.58417 15.6905 3.391 15.0689C3.08965 14.103 2.93229 13.0978 2.924 12.0859C2.924 11.412 2.971 10.773 3.059 10.1849C4.165 10.7809 5.212 11.0799 6.139 11.3449L6.354 11.4049C7.644 11.7759 8.668 12.2619 9.489 12.8929C9.964 13.2609 10.379 13.6859 10.719 14.1569C11.088 14.6649 11.382 15.2449 11.596 15.8819C11.692 16.1709 11.796 16.3499 11.999 16.3499C12.206 16.3499 12.307 16.1699 12.404 15.8819C12.7843 14.6939 13.5197 13.6511 14.511 12.8939C15.331 12.2619 16.356 11.7759 17.646 11.4049L17.862 11.3449C18.788 11.0799 19.835 10.7809 20.94 10.1849C21.03 10.7739 21.076 11.4119 21.076 12.0849C21.076 12.5429 21.03 13.749 20.611 15.0689C20.4181 15.6905 20.1462 16.2847 19.802 16.8369C19.4329 17.4291 18.96 17.9498 18.406 18.374C17.683 18.9219 16.841 19.3099 15.832 19.5619C14.797 19.8199 13.544 19.9469 11.999 19.9489ZM21.691 5.39295C19.782 3.34295 16.701 2.40295 11.999 2.39795C7.299 2.40295 4.218 3.34195 2.309 5.39195C0.89 6.91295 0 9.01795 0 11.8739C0 13.4529 0.39 17.4739 3.564 19.5499C5.464 20.7919 7.918 21.5959 11.999 21.6019C16.082 21.5959 18.535 20.7919 20.436 19.5499C23.609 17.4739 24 13.4519 24 11.8739C24 9.02595 23.103 6.90595 21.69 5.39095L21.691 5.39295Z" fill="#494949"/>
</svg>
