<svg width="24" height="24" viewBox="0 0 24 24" fill="none" xmlns="http://www.w3.org/2000/svg">
<path fill-rule="evenodd" clip-rule="evenodd" d="M12 2C6.477 2 2 6.477 2 12C2 17.523 6.477 22 12 22C17.523 22 22 17.523 22 12C22 6.477 17.523 2 12 2ZM3.816 7.3C4.63513 5.87814 5.81039 4.69408 7.2261 3.86436C8.64182 3.03464 10.2492 2.58786 11.89 2.568L10.597 11.138L3.761 16.661C2.95446 15.2309 2.53527 13.615 2.54492 11.9732C2.55456 10.3314 2.99271 8.72052 3.816 7.3ZM12.039 21.48C10.3958 21.4898 8.77857 21.0695 7.34799 20.261C5.91741 19.4525 4.72322 18.2838 3.884 16.871L12.004 13.51L20.154 16.82C19.3231 18.2351 18.1376 19.4091 16.7146 20.2263C15.2915 21.0435 13.68 21.4756 12.039 21.48ZM13.365 11.252L12.132 2.568C13.7657 2.59275 15.3651 3.04066 16.774 3.868C18.1833 4.69402 19.3546 5.87088 20.174 7.284C20.9964 8.69497 21.4383 10.2953 21.4563 11.9284C21.4744 13.5614 21.068 15.1712 20.277 16.6L13.365 11.252Z" fill="#494949"/>
</svg>
