<svg width="24" height="24" viewBox="0 0 24 24" fill="none" xmlns="http://www.w3.org/2000/svg">
<path d="M5.2698 5.23478V4.80978C5.4298 4.78845 5.5868 4.76845 5.7408 4.74978C5.9168 4.72912 6.0928 4.71012 6.2688 4.69278C6.3828 4.68078 6.4118 4.70878 6.4158 4.82778V4.97078C6.4158 5.07678 6.3888 5.10678 6.2828 5.11978C6.0408 5.14978 5.7988 5.17478 5.5568 5.20278L5.2698 5.23478ZM16.7798 4.99978V5.25878C16.7798 5.34478 16.7418 5.38978 16.6458 5.38278C16.3263 5.36144 16.007 5.33811 15.6878 5.31278C15.6018 5.30578 15.5598 5.26978 15.5568 5.18878C15.551 5.00216 15.551 4.81541 15.5568 4.62878C15.5568 4.54278 15.6008 4.50878 15.6888 4.51578C16.0088 4.53845 16.3285 4.56378 16.6478 4.59178C16.7478 4.60078 16.7768 4.63778 16.7808 4.74178C16.7821 4.83045 16.7818 4.91645 16.7798 4.99978ZM20.1458 3.63378C20.1568 4.07978 20.1748 4.50678 20.1778 4.93378C20.1778 5.61578 20.1918 6.29778 20.1778 6.97878C20.1573 8.74654 19.9178 10.5049 19.4648 12.2138C18.8453 14.5009 17.6348 16.5847 15.9548 18.2558C14.8409 19.3666 13.5478 20.2818 12.1298 20.9628C12.0911 20.9843 12.0476 20.9956 12.0033 20.9956C11.959 20.9956 11.9155 20.9843 11.8768 20.9628C9.13302 19.6604 6.89896 17.4843 5.5248 14.7758C4.99337 13.7152 4.59598 12.5925 4.3418 11.4338C4.14844 10.5624 4.01083 9.67964 3.9298 8.79078C3.82828 7.59966 3.79156 6.4039 3.8198 5.20878C3.8258 4.73378 3.8408 4.25878 3.8518 3.78378C3.8518 3.73678 3.8578 3.68978 3.8608 3.63178C9.25125 2.72409 14.7556 2.72476 20.1458 3.63378ZM12.8918 18.3998C12.9918 18.2158 13.0918 18.0588 13.1728 17.8998C13.2534 17.7461 13.3639 17.6101 13.4978 17.4998C14.2718 16.8618 15.0438 16.2208 15.8198 15.5868C15.9274 15.5064 16.0037 15.3912 16.0358 15.2608C16.1765 14.6875 16.2662 14.1029 16.3038 13.5138C16.3336 13.0344 16.3233 12.5534 16.2728 12.0758C16.2624 11.9708 16.2244 11.8704 16.1628 11.7848C15.7516 11.1974 15.296 10.6424 14.7998 10.1248C14.7424 10.0616 14.6645 10.0208 14.5798 10.0098C14.5858 10.0548 14.5878 10.0918 14.5958 10.1278C14.6858 10.5508 14.7788 10.9718 14.8658 11.3948C14.8864 11.4932 14.9363 11.5831 15.0088 11.6528C15.254 11.8899 15.4766 12.1494 15.6738 12.4278C15.7646 12.5532 15.817 12.7022 15.8248 12.8568C15.8687 13.5995 15.8533 14.3445 15.7788 15.0848C15.7723 15.1533 15.7517 15.2198 15.7183 15.28C15.685 15.3403 15.6395 15.3929 15.5848 15.4348C14.8848 16.0348 14.1848 16.6348 13.4928 17.2418C13.3076 17.3874 13.1547 17.5699 13.0438 17.7778C13.0438 17.7848 13.0278 17.7878 13.0178 17.7928C12.8736 17.4758 12.8419 17.1192 12.9278 16.7818C13.0468 16.3868 13.1488 15.9878 13.2578 15.5898L13.2978 15.4268L13.2688 15.4148C13.2468 15.4548 13.2265 15.4955 13.2078 15.5368C13.0698 15.8528 12.9298 16.1688 12.7978 16.4878C12.7028 16.7188 12.6198 16.9538 12.5298 17.1878C12.5063 17.2454 12.4947 17.3072 12.4957 17.3694C12.4967 17.4316 12.5104 17.493 12.5358 17.5498C12.6358 17.7828 12.7278 18.0198 12.8238 18.2558C12.8408 18.2928 12.8608 18.3298 12.8918 18.3998ZM10.7448 10.4358H10.6948C10.7008 10.5478 10.7038 10.6618 10.7148 10.7738C10.7288 10.9268 10.7488 11.0738 10.7658 11.2308C10.7812 11.3412 10.756 11.4535 10.6948 11.5468C10.6228 11.6608 10.5588 11.7788 10.4848 11.8908C9.94183 12.7054 9.35148 13.4874 8.7168 14.2328C8.61909 14.339 8.55657 14.4727 8.5378 14.6158C8.51047 14.8825 8.48113 15.1491 8.4498 15.4158C8.43657 15.5315 8.46416 15.6482 8.5278 15.7458C8.6198 15.8858 8.7078 16.0288 8.8078 16.1638C9.33872 16.881 9.91278 17.5653 10.5268 18.2128C10.7101 18.4239 10.9356 18.5942 11.1888 18.7128C11.2728 18.7478 11.3518 18.7948 11.4338 18.8338L11.5178 18.8608L11.5358 18.8338C11.4895 18.7819 11.4379 18.735 11.3818 18.6938C11.1821 18.5695 11.0027 18.4154 10.8498 18.2368C10.2627 17.5769 9.71415 16.8838 9.2068 16.1608C9.0998 16.0078 9.0068 15.8458 8.9068 15.6878C8.84938 15.5989 8.82366 15.4932 8.8338 15.3878C8.8538 15.1964 8.87513 15.0058 8.8978 14.8158C8.91457 14.7156 8.9663 14.6245 9.0438 14.5588C9.21713 14.3988 9.38647 14.2358 9.5518 14.0698C9.87019 13.8235 10.1068 13.4868 10.2308 13.1038C10.4688 12.5958 10.6858 12.0788 10.9128 11.5658C10.9583 11.4854 10.9745 11.3918 10.9588 11.3008C10.8881 11.0075 10.8168 10.7175 10.7448 10.4308V10.4358ZM11.7158 7.26278V7.30378C11.7908 7.30378 11.8658 7.31278 11.9408 7.30978C12.3768 7.29512 12.8128 7.27812 13.2488 7.25878C13.4025 7.24663 13.5568 7.27418 13.6968 7.33878C13.9135 7.43945 14.1321 7.53745 14.3528 7.63278C14.4402 7.67001 14.5325 7.69459 14.6268 7.70578C14.8078 7.72678 14.9918 7.72478 15.1718 7.74778C15.281 7.75807 15.3874 7.78823 15.4858 7.83678C15.8708 8.05278 16.2488 8.27878 16.6278 8.50578C16.714 8.56442 16.818 8.59128 16.9218 8.58178C16.6428 8.31478 16.3838 8.06678 16.1218 7.81978C16.1038 7.80415 16.084 7.79073 16.0628 7.77978C15.4612 7.43092 14.8454 7.1073 14.2168 6.80978C14.0806 6.75002 13.9344 6.71611 13.7858 6.70978C13.4938 6.69878 13.2018 6.68178 12.9088 6.67178C12.0891 6.64428 11.2685 6.66265 10.4508 6.72678C10.3881 6.72638 10.3266 6.74385 10.2735 6.77715C10.2203 6.81044 10.1778 6.85818 10.1508 6.91478C10.0627 7.07525 9.94175 7.21531 9.7958 7.32578C9.5283 7.55893 9.24459 7.7728 8.9468 7.96578C8.91056 7.98343 8.87824 8.00819 8.85178 8.03861C8.82532 8.06902 8.80526 8.10445 8.7928 8.14278C8.9318 8.06578 9.0518 7.99678 9.1738 7.93178L10.7058 7.10578C10.8353 7.03232 10.981 6.99212 11.1298 6.98878C11.3698 6.98878 11.6088 6.95978 11.8488 6.95578C12.4488 6.94778 13.0578 6.94578 13.6618 6.94278C13.7643 6.94148 13.8645 6.97302 13.9478 7.03278C13.2068 7.08978 12.4588 7.15178 11.7158 7.25778V7.26278ZM6.6078 10.3918C6.61018 10.5443 6.5544 10.6919 6.4518 10.8048C6.3518 10.9048 6.2578 11.0178 6.1648 11.1278C6.0988 11.2058 6.0938 11.2408 6.1538 11.3188C6.27114 11.4708 6.39314 11.6191 6.5198 11.7638C6.56119 11.7977 6.60693 11.826 6.6558 11.8478C6.6948 11.6718 6.7318 11.5188 6.7638 11.3638C6.76902 11.3186 6.7895 11.2765 6.82186 11.2445C6.85423 11.2125 6.89653 11.1925 6.9418 11.1878C7.2208 11.1368 7.4968 11.0768 7.7748 11.0228C7.9418 10.9898 8.1098 10.9608 8.2958 10.9278L8.1958 10.8028C8.0958 10.7028 7.9898 10.6028 7.8958 10.4918C7.84534 10.4276 7.78023 10.3765 7.70592 10.3428C7.63162 10.309 7.5503 10.2936 7.4688 10.2978C7.36509 10.2945 7.26162 10.2858 7.1588 10.2718L7.1488 10.2438C7.183 10.2151 7.21908 10.1887 7.2568 10.1648C7.28753 10.1516 7.3189 10.1399 7.3508 10.1298L8.7998 9.57978C8.94537 9.52335 9.06429 9.41407 9.1328 9.27378C9.12344 9.27298 9.11401 9.27407 9.10507 9.27699C9.09614 9.27991 9.08788 9.2846 9.0808 9.29078C8.91022 9.43428 8.70192 9.52559 8.4808 9.55378C8.4098 9.56778 8.3408 9.58778 8.2708 9.60478C8.18777 9.62928 8.09887 9.62469 8.0188 9.59178C7.97024 9.5736 7.91747 9.56978 7.8668 9.58078C7.7668 9.59778 7.6618 9.62778 7.5588 9.65078C7.5308 9.65678 7.5008 9.65778 7.4478 9.66378C7.51489 9.58323 7.60074 9.52039 7.6978 9.48078C7.7978 9.44678 7.8978 9.40278 7.9978 9.36978C8.03328 9.36356 8.06532 9.34477 8.08809 9.31686C8.11086 9.28895 8.12282 9.25379 8.1218 9.21778C8.1268 9.12678 8.1518 9.03778 8.1618 8.94678C8.16398 8.91581 8.17333 8.88577 8.18913 8.85904C8.20492 8.83231 8.22672 8.80963 8.2528 8.79278C8.3728 8.70345 8.4908 8.61278 8.6068 8.52078C8.62947 8.50882 8.64894 8.49158 8.66355 8.47053C8.67817 8.44947 8.68752 8.42521 8.6908 8.39978C8.5128 8.50578 8.3558 8.60778 8.1908 8.69978C7.90394 8.84801 7.65958 9.0669 7.4808 9.33578C7.42509 9.41258 7.35759 9.48008 7.2808 9.53578C6.9348 9.80278 6.5808 10.0628 6.2398 10.3358C6.14191 10.4135 6.05151 10.5002 5.9698 10.5948C5.8698 10.7048 5.8958 10.8308 6.0318 10.9228L6.2378 10.7738C6.35005 10.7082 6.44181 10.6126 6.5028 10.4978C6.5178 10.4498 6.5708 10.4238 6.6078 10.3918ZM14.0558 8.70678C14.2274 8.74506 14.4058 8.74164 14.5758 8.69678C14.7018 8.65178 14.8378 8.63778 14.9668 8.59678C15.0349 8.57353 15.1079 8.56905 15.1783 8.58384C15.2487 8.59862 15.3138 8.63211 15.3668 8.68078C15.6535 8.91545 15.9425 9.14612 16.2338 9.37278C16.3253 9.44146 16.4238 9.50013 16.5278 9.54778C16.7188 9.63778 16.9148 9.71678 17.1098 9.79878C17.1595 9.81741 17.2033 9.84888 17.2369 9.88999C17.2705 9.9311 17.2925 9.98037 17.3008 10.0328C17.3078 10.0708 17.3208 10.1068 17.3268 10.1448C17.3838 10.5448 17.4378 10.9448 17.4978 11.3448C17.5366 11.5849 17.4948 11.831 17.3788 12.0448C17.2328 12.3258 17.0898 12.6078 16.9398 12.8868C16.9096 12.9521 16.8636 13.0089 16.8058 13.0518C16.7216 13.0967 16.653 13.1662 16.6092 13.2511C16.5654 13.3359 16.5486 13.4321 16.5608 13.5268C16.5617 13.6046 16.558 13.6824 16.5498 13.7598C16.594 13.7322 16.6324 13.6961 16.6628 13.6538C17.0547 13.1134 17.3952 12.5376 17.6798 11.9338C17.7051 11.8823 17.7213 11.8268 17.7278 11.7698C17.7966 11.057 17.7693 10.3383 17.6468 9.63278C17.6402 9.58549 17.6237 9.54011 17.5983 9.49962C17.573 9.45913 17.5394 9.42443 17.4998 9.39778C16.8814 8.95728 16.2255 8.57181 15.5398 8.24578C15.4764 8.21198 15.4062 8.19314 15.3344 8.19071C15.2627 8.18829 15.1913 8.20234 15.1258 8.23178C14.8048 8.37178 14.4818 8.50678 14.1608 8.64578C14.1246 8.66397 14.0895 8.68434 14.0558 8.70678ZM12.2558 18.9748C12.2698 18.8296 12.2439 18.6833 12.1808 18.5518C12.1167 18.4174 12.0587 18.2803 12.0068 18.1408C11.8375 17.7075 11.6708 17.2741 11.5068 16.8408C11.4687 16.7425 11.4533 16.6369 11.4618 16.5318C11.4888 16.2398 11.5198 15.9478 11.5748 15.6608C11.7208 14.8928 11.8808 14.1278 12.0338 13.3608C12.0459 13.191 12.0217 13.0205 11.9628 12.8608C11.9351 12.8959 11.9134 12.9355 11.8988 12.9778C11.8098 13.2108 11.7178 13.4428 11.6328 13.6778C11.3632 14.4015 11.1273 15.1373 10.9258 15.8828C10.8712 16.0771 10.8875 16.2844 10.9718 16.4678C11.3401 17.2966 11.75 18.1063 12.1998 18.8938L12.2588 18.9748H12.2558ZM8.3548 8.93578L8.3658 8.96978C8.4658 8.96978 8.5728 8.97678 8.6758 8.96978C8.91096 8.97258 9.14571 8.94944 9.3758 8.90078C9.6688 8.81078 9.9618 8.72278 10.2528 8.62578C10.316 8.60603 10.3708 8.56595 10.4088 8.51178C10.5668 8.25478 10.7148 7.99178 10.8648 7.72978C10.8712 7.71142 10.8749 7.69222 10.8758 7.67278C10.6721 7.64341 10.4645 7.65773 10.2668 7.71478C9.93814 7.84678 9.6128 7.98678 9.2908 8.13478C9.21123 8.1772 9.1406 8.23458 9.0828 8.30378C8.98776 8.40523 8.89988 8.51315 8.8198 8.62678C8.74187 8.74287 8.62699 8.82921 8.4938 8.87178C8.4459 8.88954 8.39943 8.91093 8.3548 8.93578ZM8.3808 11.1648L8.3748 11.1948C8.4168 11.2128 8.45914 11.2298 8.5018 11.2458C8.73247 11.3285 8.96247 11.4118 9.1918 11.4958C9.23045 11.5053 9.26623 11.5239 9.29612 11.5502C9.326 11.5765 9.34909 11.6096 9.36342 11.6467C9.37776 11.6838 9.38292 11.7238 9.37846 11.7634C9.374 11.8029 9.36005 11.8408 9.3378 11.8738C9.18073 12.1708 8.99412 12.4512 8.7808 12.7108C8.73881 12.7627 8.68449 12.8033 8.6228 12.8288C8.4168 12.9048 8.2048 12.9678 7.9958 13.0398C7.96473 13.0518 7.93083 13.0544 7.8983 13.0473C7.86576 13.0402 7.83603 13.0236 7.8128 12.9998C7.7448 12.9384 7.6758 12.8788 7.6058 12.8208C7.5818 12.8008 7.5548 12.7858 7.5168 12.7588C7.48523 12.9289 7.49832 13.1043 7.5548 13.2678C7.61687 13.4235 7.66735 13.5836 7.7058 13.7468C7.7428 13.8808 7.7688 14.0178 7.8058 14.1528C7.8308 14.2468 7.8578 14.2698 7.9498 14.2528C8.09016 14.2227 8.22818 14.1826 8.3628 14.1328C8.43162 14.0939 8.49431 14.045 8.5488 13.9878C8.51567 13.9725 8.47851 13.9683 8.4428 13.9758C8.3298 14.0008 8.2188 14.0298 8.1058 14.0508C7.9928 14.0718 7.9878 14.0508 7.9678 13.9568C7.94056 13.8155 7.91522 13.6738 7.8918 13.5318C7.8678 13.3898 7.8768 13.3938 8.0088 13.3488L8.8798 13.0488C8.95496 13.0305 9.02016 12.984 9.0618 12.9188C9.27514 12.5434 9.48747 12.1675 9.6988 11.7908C9.72054 11.7541 9.72768 11.7105 9.7188 11.6688C9.7042 11.6053 9.67311 11.5469 9.62869 11.4993C9.58427 11.4517 9.52808 11.4167 9.4658 11.3978C9.1658 11.3258 8.8658 11.2468 8.5578 11.1748C8.49921 11.1662 8.43998 11.1629 8.3808 11.1648ZM13.1548 10.5758C13.1468 10.5278 13.1438 10.4998 13.1378 10.4758L12.9598 9.63278C12.9419 9.58253 12.9373 9.52851 12.9464 9.47596C12.9555 9.42341 12.9781 9.37409 13.0118 9.33278C13.0596 9.27305 13.1024 9.20951 13.1398 9.14278C13.3738 8.76278 13.3708 8.87378 13.2658 8.38178C13.2635 8.36283 13.2584 8.34431 13.2508 8.32678C13.2419 8.30451 13.227 8.28513 13.2078 8.27078C13.0992 8.19049 12.9639 8.15472 12.8298 8.17078C12.4368 8.25478 12.0408 8.32778 11.6468 8.40778C11.5685 8.42084 11.4972 8.46089 11.4454 8.52098C11.3935 8.58107 11.3643 8.65742 11.3628 8.73678C11.4468 8.75278 11.5318 8.76278 11.6148 8.78478C11.7315 8.81334 11.8544 8.80062 11.9628 8.74878C12.2058 8.64878 12.4548 8.56078 12.6978 8.45978C12.7396 8.44225 12.7847 8.4338 12.8301 8.43501C12.8754 8.43621 12.92 8.44704 12.9608 8.46678C12.9953 8.48394 13.0259 8.50805 13.0507 8.53759C13.0755 8.56713 13.0939 8.60147 13.1048 8.63846C13.1157 8.67545 13.1188 8.71429 13.114 8.75255C13.1092 8.7908 13.0965 8.82765 13.0768 8.86078C12.9701 9.00878 12.8605 9.15412 12.7478 9.29678C12.7231 9.32308 12.7065 9.35585 12.6998 9.39127C12.693 9.42668 12.6965 9.46328 12.7098 9.49678C12.8011 9.78412 12.8901 10.0725 12.9768 10.3618C12.9903 10.4077 13.013 10.4504 13.0436 10.4872C13.0742 10.524 13.1121 10.5542 13.1548 10.5758ZM8.5928 5.29978L7.3058 5.38978V5.07978L8.4468 4.99078V4.79978L7.3078 4.88178V4.59978L8.5898 4.49978C8.5898 4.46078 8.5978 4.43278 8.5978 4.40478C8.59648 4.37132 8.59347 4.33795 8.5888 4.30478L7.0998 4.41478V5.59978L8.5998 5.48578L8.5928 5.29978ZM12.5998 5.19978H11.5748C11.4688 5.19978 11.4298 5.15678 11.4278 5.04878V4.60278C11.4278 4.42678 11.4508 4.40278 11.6278 4.40278H12.7348V4.20978C12.7038 4.20978 12.6808 4.20178 12.6568 4.20178H11.6208C11.5681 4.20363 11.5156 4.20965 11.4638 4.21978C11.4001 4.22387 11.3404 4.25213 11.2969 4.2988C11.2534 4.34546 11.2294 4.40699 11.2298 4.47078C11.2191 4.69612 11.2191 4.92145 11.2298 5.14678C11.2297 5.20576 11.2523 5.26251 11.2929 5.30532C11.3334 5.34812 11.3889 5.37371 11.4478 5.37678C11.5092 5.38791 11.5714 5.39326 11.6338 5.39278H12.6838C12.7258 5.39278 12.7668 5.38678 12.8188 5.38278C12.8248 5.14578 12.8288 4.91978 12.8188 4.69078H11.9998V4.88178H12.5998V5.19978ZM13.5378 4.41978L14.8378 4.46678V4.27678C14.3378 4.25278 13.8378 4.22378 13.3298 4.22278V5.40378L14.8458 5.46178L14.8378 5.26778L13.5428 5.21478V4.91778H14.1238C14.3148 4.91778 14.5018 4.95178 14.6898 4.93478V4.74678L13.5398 4.69978L13.5378 4.41978ZM16.9828 5.01978V4.71978C16.9856 4.65179 16.9644 4.58499 16.9229 4.53106C16.8814 4.47713 16.8222 4.43951 16.7558 4.42478C16.7104 4.40991 16.6634 4.40051 16.6158 4.39678C16.3245 4.37345 16.0331 4.35145 15.7418 4.33078C15.6892 4.32662 15.6364 4.32662 15.5838 4.33078C15.4318 4.34578 15.3528 4.41478 15.3468 4.56778C15.3388 4.78778 15.3388 5.00778 15.3468 5.22778C15.345 5.29164 15.3673 5.35383 15.4094 5.40187C15.4515 5.44991 15.5103 5.48025 15.5738 5.48678C15.6399 5.49981 15.7067 5.50949 15.7738 5.51578C15.9838 5.53312 16.1941 5.54912 16.4048 5.56378C16.5192 5.57336 16.6341 5.57637 16.7488 5.57278C16.7804 5.57445 16.8119 5.56935 16.8413 5.55785C16.8708 5.54634 16.8974 5.52869 16.9194 5.50606C16.9415 5.48344 16.9585 5.45637 16.9692 5.42666C16.98 5.39695 16.9843 5.36528 16.9818 5.33378C16.9888 5.23178 16.9848 5.12678 16.9848 5.02078L16.9828 5.01978ZM5.2598 5.43478C5.5328 5.40278 5.7848 5.37578 6.0368 5.34478C6.15553 5.33241 6.27365 5.31472 6.3908 5.29178C6.44611 5.28354 6.49729 5.25768 6.53674 5.21805C6.57619 5.17842 6.60181 5.12713 6.6098 5.07178C6.62334 4.94849 6.62334 4.82408 6.6098 4.70078C6.60594 4.64959 6.58346 4.60158 6.54661 4.56584C6.50976 4.53009 6.46109 4.50908 6.4098 4.50678C6.35866 4.49775 6.30655 4.4954 6.2548 4.49978C6.02147 4.52245 5.78814 4.54712 5.5548 4.57378C5.3908 4.59378 5.22413 4.61512 5.0548 4.63778V5.82378L5.2548 5.79978L5.2598 5.43478ZM9.3158 4.26978L9.0998 4.28078V5.10978C9.0998 5.35378 9.1848 5.43478 9.4308 5.44378H9.4598C9.7668 5.43178 10.0738 5.42478 10.3808 5.40678C10.6288 5.39178 10.7068 5.30178 10.7088 5.04978V4.34378C10.7075 4.30778 10.7048 4.26912 10.7008 4.22778H10.5008C10.5008 4.28078 10.4938 4.32778 10.4928 4.37478V5.06578C10.4928 5.18378 10.4688 5.21078 10.3508 5.21678C10.0488 5.23278 9.7468 5.24512 9.4448 5.25378C9.3378 5.25378 9.3118 5.22578 9.3098 5.11478C9.3078 5.00378 9.3098 4.87478 9.3098 4.75478L9.3158 4.26978ZM18.9408 4.63278L17.3678 4.45778V4.65778L18.0518 4.73478V5.72078L18.2678 5.74978V4.75678L18.9408 4.82778V4.63278ZM9.0408 12.0888L9.0098 12.0568L8.0598 12.8408L8.0728 12.8678L8.5828 12.6878C8.60916 12.6764 8.63196 12.6581 8.6488 12.6348C8.78214 12.4535 8.91347 12.2715 9.0428 12.0888H9.0408ZM7.1848 11.6888C7.1066 11.6991 7.03185 11.7274 6.96644 11.7715C6.90102 11.8155 6.84672 11.8742 6.8078 11.9428L7.0898 12.2688C7.10052 12.2359 7.10954 12.2026 7.1168 12.1688C7.1408 12.0168 7.1618 11.8658 7.1868 11.6878L7.1848 11.6888ZM8.4428 9.12978L8.4298 9.39978C8.7168 9.36978 8.7618 9.31878 8.6858 9.11878L8.4428 9.12978ZM3.1658 2.98578C5.77231 2.53213 8.40963 2.27806 11.0548 2.22578C14.3292 2.16808 17.6016 2.42223 20.8278 2.98478C20.8278 3.02078 20.8398 3.04878 20.8408 3.07678C20.8798 4.19978 20.9128 5.32178 20.8948 6.44578C20.8808 7.6013 20.7953 8.75484 20.6388 9.89978C20.443 11.3855 20.0516 12.8387 19.4748 14.2218C18.3354 16.8954 16.4153 19.1627 13.9658 20.7268C13.3697 21.1151 12.7461 21.4594 12.0998 21.7568C12.0688 21.7726 12.0346 21.7808 11.9998 21.7808C11.965 21.7808 11.9308 21.7726 11.8998 21.7568C10.0039 20.903 8.31413 19.6508 6.94541 18.0856C5.57669 16.5203 4.56113 14.6786 3.9678 12.6858C3.68704 11.7579 3.48171 10.8088 3.3538 9.84778C3.16027 8.40687 3.07536 6.95343 3.0998 5.49978C3.1078 4.70778 3.1348 3.91678 3.1538 3.12478L3.1658 2.98578ZM3.5278 3.35278V3.53078C3.51847 3.91945 3.5078 4.30812 3.4958 4.69678C3.45033 6.01169 3.47905 7.32811 3.5818 8.63978C3.65335 9.52464 3.78094 10.4041 3.9638 11.2728C4.2361 12.6152 4.69594 13.9126 5.3298 15.1268C6.77484 17.8583 9.0772 20.0394 11.8828 21.3348C11.9207 21.3537 11.9627 21.363 12.005 21.3619C12.0474 21.3609 12.0889 21.3495 12.1258 21.3288C12.8263 21.0023 13.4986 20.6183 14.1358 20.1808C16.2263 18.7715 17.8942 16.8202 18.9608 14.5358C19.6192 13.0824 20.0593 11.5398 20.2668 9.95778C20.4247 8.85975 20.5062 7.7521 20.5108 6.64278C20.5108 5.74278 20.4958 4.84278 20.4848 3.93578C20.4848 3.74478 20.4698 3.55378 20.4618 3.35178C14.8596 2.37307 9.13004 2.37407 3.5278 3.35278Z" fill="#494949"/>
</svg>
