<svg width="24" height="24" viewBox="0 0 24 24" fill="none" xmlns="http://www.w3.org/2000/svg">
<path d="M12.03 3.43994C7.95 3.43994 4.51 6.13994 3.51 9.79994C3.08 9.84994 2.87 9.87994 2.69 9.92994C2.12 10.0599 2 10.2599 2 10.6699V13.4399C2 13.8399 2.43 14.1199 2.73 14.1699C3.03 14.2299 3.22 14.2499 3.53 14.2799H3.533C4.567 17.9049 7.974 20.5599 12.03 20.5599C16.085 20.5599 19.5 17.8969 20.526 14.2749C20.776 14.2536 21.024 14.2186 21.27 14.1699C21.57 14.1199 22 13.8399 22 13.4399V10.6699C22 10.2599 21.88 10.0599 21.31 9.92994C21.138 9.88294 20.934 9.85294 20.544 9.80694L20.54 9.77994C19.53 6.11994 16.1 3.43994 12.03 3.43994ZM12.04 5.45994C14.92 5.45994 17.38 7.21994 18.34 9.68994C18.34 9.69994 18.35 9.70994 18.35 9.70994L18.362 9.71494C16.287 9.63594 13.607 9.54994 12 9.54994C10.415 9.54994 7.79 9.63394 5.726 9.71094H5.73C6.69 7.23094 9.15 5.45994 12.04 5.45994ZM7.33 10.8909H7.87C7.92 10.8909 7.93 10.9109 7.93 10.9509V13.0509C7.93 13.1009 7.92 13.1209 7.86 13.1209H7.35C7.29 13.1209 7.28 13.1109 7.28 13.0509V10.9509C7.28 10.9109 7.29 10.8909 7.33 10.8909ZM9.12 10.9009H10.72C10.78 10.9009 10.8 10.9109 10.8 10.9609V11.3209C10.8 11.3709 10.78 11.3909 10.72 11.3809H9.15C9.08 11.3809 9.05 11.4109 9.04 11.4809V11.5709C9.04 11.6209 9.07 11.6609 9.14 11.6709C9.32 11.7009 9.9 11.7409 10.12 11.7609C10.51 11.8009 10.8 11.8709 10.88 12.2409C10.88 12.2709 10.89 12.3709 10.89 12.4809C10.89 12.5509 10.89 12.6409 10.87 12.7209C10.8 13.0709 10.54 13.1409 10.12 13.1409H8.47C8.41 13.1409 8.4 13.1309 8.4 13.0709V12.7209C8.4 12.6609 8.41 12.6509 8.47 12.6509H10.14C10.21 12.6509 10.23 12.6309 10.24 12.5809V12.4309C10.23 12.3909 10.22 12.3309 10.13 12.3209C9.76 12.2943 9.39 12.2609 9.02 12.2209C8.54 12.1709 8.42 11.9709 8.4 11.7909C8.39 11.7309 8.39 11.6509 8.39 11.5809C8.39 11.5209 8.39 11.4309 8.4 11.3609C8.47 11.0509 8.7 10.9009 9.12 10.9009ZM11.96 10.9009H13.56C13.62 10.9009 13.64 10.9109 13.64 10.9609V11.3209C13.64 11.3709 13.62 11.3909 13.56 11.3809H11.99C11.92 11.3809 11.89 11.4109 11.88 11.4809V11.5709C11.88 11.6209 11.9 11.6609 11.98 11.6709C12.16 11.7009 12.74 11.7409 12.95 11.7609C13.34 11.8009 13.63 11.8709 13.71 12.2409C13.71 12.2709 13.72 12.3709 13.72 12.4809C13.72 12.5509 13.72 12.6409 13.7 12.7209C13.63 13.0709 13.37 13.1409 12.95 13.1409H11.31C11.25 13.1409 11.24 13.1309 11.24 13.0709V12.7209C11.24 12.6609 11.25 12.6509 11.31 12.6509H12.98C13.05 12.6509 13.07 12.6309 13.08 12.5809V12.4309C13.07 12.3909 13.05 12.3309 12.97 12.3209C12.6 12.2943 12.23 12.2609 11.86 12.2209C11.38 12.1709 11.27 11.9709 11.24 11.7909C11.23 11.7309 11.23 11.6509 11.23 11.5809C11.23 11.5209 11.23 11.4309 11.24 11.3609C11.31 11.0509 11.54 10.9009 11.96 10.9009ZM4.19 10.9109H4.7C5.08 10.9109 5.13 10.9009 5.27 11.1009C5.38 11.2809 6.27 12.6509 6.27 12.6509V10.9809C6.27 10.9309 6.28 10.9109 6.34 10.9109H6.78C6.84 10.9109 6.85 10.9309 6.85 10.9809V13.0709C6.85 13.1309 6.84 13.1409 6.78 13.1409H6.18C5.83 13.1409 5.8 13.1409 5.68 12.9409C5.44 12.5609 4.7 11.4309 4.7 11.4309V13.0709C4.7 13.1309 4.69 13.1409 4.63 13.1409H4.19C4.13 13.1409 4.12 13.1309 4.12 13.0709V10.9809C4.12 10.9309 4.13 10.9109 4.19 10.9109ZM15.37 10.9109C15.48 10.9109 15.56 10.9109 15.59 10.9209C15.95 10.9309 15.89 10.8909 16.06 11.2609C16.15 11.4709 16.79 12.8409 16.89 13.0809C16.92 13.1509 16.9 13.1409 16.82 13.1409H16.27C16.24 13.1409 16.21 13.1309 16.2 13.1009C16.2 13.0909 16.13 12.9309 16.03 12.7009H14.74C14.64 12.9309 14.56 13.1009 14.56 13.1009C14.55 13.1209 14.53 13.1409 14.49 13.1409H13.96C13.88 13.1409 13.85 13.1409 13.9 13.0409L13.91 13.0209C14.16 12.4709 14.75 11.1509 14.75 11.1509C14.87 10.9009 14.81 10.9209 15.15 10.9209C15.24 10.9109 15.26 10.9109 15.37 10.9109ZM17.29 10.9109H17.8C18.18 10.9109 18.23 10.9009 18.37 11.1009C18.49 11.2809 19.37 12.6509 19.37 12.6509V10.9809C19.37 10.9309 19.38 10.9109 19.44 10.9109H19.88C19.94 10.9109 19.95 10.9309 19.95 10.9809V13.0709C19.95 13.1309 19.94 13.1409 19.88 13.1409H19.28C18.93 13.1409 18.9 13.1409 18.78 12.9409C18.53 12.5609 17.8 11.4309 17.8 11.4309V13.0709C17.8 13.1309 17.79 13.1409 17.73 13.1409H17.29C17.23 13.1409 17.22 13.1309 17.22 13.0709V10.9809C17.22 10.9309 17.23 10.9109 17.29 10.9109ZM15.4 11.4109C15.37 11.4109 15.34 11.4109 15.33 11.4209C15.3 11.4209 15.28 11.4309 15.27 11.4509C15.27 11.4609 15.11 11.8409 14.94 12.2309H15.83C15.7 11.9009 15.55 11.5709 15.51 11.4609C15.5 11.4309 15.48 11.4209 15.46 11.4209C15.45 11.4109 15.42 11.4109 15.4 11.4109ZM18.3 14.4029C18.297 14.4149 18.28 14.4429 18.28 14.4509C17.28 16.8509 14.86 18.5509 12.03 18.5509C9.18 18.5509 6.75 16.8309 5.76 14.4109L5.74 14.4059C7.554 14.4969 9.902 14.5909 12 14.5909C14.115 14.5909 16.48 14.4959 18.3 14.4039" fill="#494949"/>
</svg>
