<svg width="20" height="20" viewBox="0 0 20 20" fill="none" xmlns="http://www.w3.org/2000/svg">
<path d="M3.33203 14.9838V8.08945C3.33203 5.06164 3.33203 3.54774 4.30834 2.60712C5.28466 1.6665 6.856 1.6665 9.9987 1.6665C13.1414 1.6665 14.7128 1.6665 15.689 2.60712C16.6654 3.54774 16.6654 5.06164 16.6654 8.08945V14.9838C16.6654 16.9054 16.6654 17.8662 16.0214 18.2101C14.7741 18.876 12.4347 16.6542 11.3237 15.9852C10.6794 15.5972 10.3572 15.4032 9.9987 15.4032C9.6402 15.4032 9.31803 15.5972 8.6737 15.9852C7.5627 16.6542 5.22326 18.876 3.97607 18.2101C3.33203 17.8662 3.33203 16.9054 3.33203 14.9838Z" stroke="#0A0D12" stroke-linecap="round" stroke-linejoin="round"/>
</svg>
