<svg width="24" height="24" viewBox="0 0 24 24" fill="none" xmlns="http://www.w3.org/2000/svg">
<path d="M12 4.98291C15.004 4.98291 18.224 5.59491 20.786 7.22191C22.451 8.28591 24 9.89991 24 12.0019C24 14.4579 21.903 16.2439 19.894 17.2889C17.503 18.5269 14.678 19.0169 12 19.0169C8.997 19.0169 5.783 18.4119 3.22 16.7789C1.556 15.7139 0 14.1009 0 12.0029C0 9.53591 2.092 7.75691 4.106 6.70991C6.504 5.47391 9.323 4.98291 12 4.98291ZM11.975 5.72891C9.182 5.72891 6.173 6.25191 3.75 7.71191C2.226 8.62391 0.72 10.0589 0.72 11.9649C0.72 14.2039 2.76 15.7709 4.584 16.6709C6.842 17.7729 9.481 18.2009 11.975 18.2009C14.773 18.2009 17.784 17.6779 20.207 16.2179C21.724 15.2999 23.236 13.8719 23.236 11.9649C23.236 9.72191 21.201 8.15191 19.372 7.25991C17.114 6.15591 14.474 5.72891 11.975 5.72891ZM1.435 10.4149L6.032 9.63091L7.416 6.62791L8.794 9.62991L13.39 10.4139L8.794 11.2059L7.416 14.2159L6.032 11.2059L1.435 10.4149ZM11.541 12.7039L13.569 12.3479L14.174 10.9889L14.78 12.3479L16.808 12.7039L14.78 13.0539L14.174 14.4139L13.569 13.0539L11.541 12.7039ZM15.737 9.08291L17.765 8.73291L18.37 7.36791L18.976 8.73191L21.004 9.08191L18.976 9.43891L18.37 10.7989L17.764 9.43891L15.737 9.08291ZM13.57 15.5099L15.59 15.1599L16.197 13.7949L16.809 15.1599L18.836 15.5099L16.809 15.8669L16.197 17.2269L15.591 15.8669L13.57 15.5099ZM7.34 16.0009L9.368 15.6509L9.98 14.2849L10.585 15.6509L12.613 16.0009L10.585 16.3579L9.98 17.7169L9.368 16.3579L7.34 16.0009ZM17.536 12.6479L19.558 12.2909L20.163 10.9319L20.775 12.2909L22.803 12.6479L20.775 12.9979L20.163 14.3549L19.557 12.9979L17.536 12.6479Z" fill="#494949"/>
</svg>
