<svg width="24" height="24" viewBox="0 0 24 24" fill="none" xmlns="http://www.w3.org/2000/svg">
<path fill-rule="evenodd" clip-rule="evenodd" d="M21.3343 5.119C18.0363 3.659 14.8143 3.195 12.0003 3.217C9.18533 3.195 5.96233 3.659 2.66533 5.119C2.27233 4.395 2.11133 3.957 2.11133 3.957C5.71633 2.508 9.09233 2.012 12.0003 2C14.9083 2.012 18.2843 2.508 21.8893 3.957C21.8893 3.957 21.7753 4.313 21.3343 5.119ZM14.7693 6.197L12.0003 22L9.21033 6.194C6.59133 6.196 5.76033 6.49 5.64033 7.689C5.64033 7.689 3.87033 7.019 2.97833 5.659C6.46033 4.019 9.95833 3.946 9.95833 3.946L12.0003 6.468L14.0393 3.946C14.0393 3.946 17.5373 4.02 21.0193 5.659C20.1273 7.019 18.3583 7.689 18.3583 7.689C18.2383 6.49 17.4063 6.197 14.7683 6.197" fill="#494949"/>
</svg>
