<svg width="24" height="24" viewBox="0 0 24 24" fill="none" xmlns="http://www.w3.org/2000/svg">
<path d="M12 3.84814C5.223 3.84814 0 7.29814 0 12.0001C0 16.7021 5.224 20.1521 12 20.1521C18.776 20.1521 24 16.7021 24 12.0001C24 7.29814 18.777 3.84814 12 3.84814ZM19.334 7.68714C19.334 8.76714 17.609 9.60014 14.846 9.93314C14.586 7.35314 13.841 5.65414 12.883 5.02014C15.831 5.20414 19.334 6.24714 19.334 7.68714ZM12 16.4011C11.04 16.4011 10.254 14.9011 10.192 12.0121C10.7693 12.0595 11.372 12.0835 12 12.0841C12.628 12.0841 13.2303 12.0601 13.807 12.0121C13.746 14.9021 12.96 16.4011 12 16.4011ZM12 10.0931C11.4093 10.0931 10.846 10.0751 10.31 10.0391C10.571 8.31114 11.23 6.88914 12 6.88914C12.77 6.88914 13.428 8.31114 13.689 10.0391C13.1537 10.0745 12.5907 10.0925 12 10.0931ZM11.118 5.01814C10.162 5.65114 9.412 7.35114 9.154 9.93314C6.391 9.60014 4.665 8.76714 4.665 7.68714C4.665 6.24714 8.169 5.19714 11.118 5.01814ZM2.037 11.6801C2.03484 10.5399 2.40257 9.42966 3.085 8.51614C3.355 10.0631 5.607 11.3971 9.057 11.8861V12.0001C9.057 15.7721 9.936 18.2031 11.144 18.9701C6.037 18.6491 2.037 15.4901 2.037 11.6801ZM12.86 18.9701C14.067 18.2031 14.947 15.7721 14.947 12.0001V11.8851C18.394 11.3971 20.651 10.0591 20.919 8.51514C21.6026 9.42847 21.9708 10.5393 21.968 11.6801C21.964 15.4901 17.961 18.6491 12.86 18.9701Z" fill="#494949"/>
</svg>
