<svg width="24" height="24" viewBox="0 0 24 24" fill="none" xmlns="http://www.w3.org/2000/svg">
<path d="M13.8893 4.75005C13.275 4.58306 12.6408 4.50063 12.0043 4.50505C11.3593 4.50505 10.7503 4.59105 10.1543 4.74205L12.0253 9.98205L13.8893 4.75005ZM19.3803 12.0041C19.3803 11.0681 19.2243 10.1761 18.9123 9.34805L15.4053 18.6461C16.6078 18.0033 17.6128 17.0457 18.313 15.8758C19.0132 14.7058 19.3821 13.3675 19.3803 12.0041Z" fill="#494949"/>
<path d="M15.7168 5.52023L13.5558 11.5642H10.5088L8.34084 5.49023C7.53845 5.95871 6.83146 6.5741 6.25684 7.30423L9.33984 15.4222L10.4668 12.4572H13.4278L14.5548 15.4222L17.6658 7.20323C17.1181 6.52915 16.456 5.95674 15.7098 5.51223" fill="#494949"/>
<path d="M12.0043 2C6.5843 2 2.1543 6.49 2.1543 12.004C2.1543 17.516 6.5843 22 12.0043 22C17.4243 22 21.8473 17.502 21.8473 12.004C21.8473 6.506 17.4323 2 12.0043 2ZM12.0043 20.726C7.2783 20.726 3.4093 16.811 3.4093 12.011C3.4093 7.211 7.2703 3.274 12.0043 3.274C16.7383 3.274 20.5993 7.196 20.5993 12.011C20.5993 16.826 16.7383 20.726 12.0043 20.726Z" fill="#494949"/>
<path d="M11.94 14.0552L10.034 19.0712V19.2292C10.658 19.4078 11.3147 19.4968 12.004 19.4962C12.6327 19.4985 13.259 19.4185 13.867 19.2582L13.846 19.0712L11.94 14.0552ZM4.62699 12.0042C4.62297 13.3413 4.97696 14.6551 5.65222 15.8092C6.32748 16.9633 7.29937 17.9156 8.46699 18.5672L5.04599 9.51416C4.76504 10.3141 4.62265 11.1563 4.62699 12.0042Z" fill="#494949"/>
</svg>
