<svg width="20" height="20" viewBox="0 0 20 20" fill="none" xmlns="http://www.w3.org/2000/svg">
<path d="M9.9974 18.3332C14.5997 18.3332 18.3307 14.6022 18.3307 9.99984C18.3307 5.39746 14.5997 1.6665 9.9974 1.6665C5.39502 1.6665 1.66406 5.39746 1.66406 9.99984C1.66406 11.1489 1.89662 12.2437 2.31725 13.2396C2.54971 13.7899 2.66595 14.0652 2.68034 14.2732C2.69473 14.4812 2.63351 14.7099 2.51108 15.1675L1.66406 18.3332L4.8297 17.4862C5.2873 17.3638 5.5161 17.3025 5.72408 17.3169C5.93207 17.3313 6.20727 17.4475 6.75769 17.68C7.7536 18.1006 8.84831 18.3332 9.9974 18.3332Z" stroke="#552D6C" stroke-width="1.5" stroke-linejoin="round"/>
<path d="M7.1594 10.3146L7.88518 9.41316C8.19107 9.03325 8.56919 8.67958 8.59885 8.17371C8.60627 8.04595 8.51644 7.4723 8.3366 6.32505C8.26595 5.87417 7.84499 5.8335 7.48037 5.8335C7.00522 5.8335 6.76765 5.8335 6.53173 5.94125C6.23355 6.07745 5.92743 6.46042 5.86025 6.78127C5.8071 7.03513 5.8466 7.21005 5.9256 7.5599C6.26113 9.04583 7.04828 10.5133 8.26884 11.7339C9.48944 12.9545 10.9569 13.7417 12.4429 14.0772C12.7927 14.1562 12.9676 14.1957 13.2215 14.1425C13.5424 14.0753 13.9253 13.7692 14.0615 13.471C14.1693 13.2351 14.1693 12.9976 14.1693 12.5224C14.1693 12.1577 14.1286 11.7368 13.6777 11.6662C12.5304 11.4863 11.9569 11.3965 11.829 11.4039C11.3232 11.4336 10.9695 11.8117 10.5896 12.1176L9.68819 12.8433" stroke="#552D6C" stroke-width="1.5"/>
</svg>
